<svg xmlns="http://www.w3.org/2000/svg" viewBox="0 0 17.2 21.5"><path d="M15.9 14.7a4.7 4.7 0 0 1 .9-7.5 4.9 4.9 0 0 0-3.9-2 4.7 4.7 0 0 0-2.3.4 9.6 9.6 0 0 1-1.8.5 7.6 7.6 0 0 1-1.6-.4 5.9 5.9 0 0 0-2-.5 4.7 4.7 0 0 0-2.4.7A5.4 5.4 0 0 0 .9 8a7.6 7.6 0 0 0-.9 3.7 11.5 11.5 0 0 0 .7 3.9 11.7 11.7 0 0 0 1.5 3.2 8.6 8.6 0 0 0 1.5 2 2.4 2.4 0 0 0 1.9.7A4.7 4.7 0 0 0 7 21a4.4 4.4 0 0 1 2-.4 4 4 0 0 1 1.7.4 5.1 5.1 0 0 0 1.6.4 2.6 2.6 0 0 0 1.9-.8 6 6 0 0 0 .7-.7 5.8 5.8 0 0 0 .7-1.1l.6-1 .5-1c0-.3 0-.4.2-.6s0-.3.2-.4a16.2 16.2 0 0 0-1.3-1.1ZM11.8 3.3a4.7 4.7 0 0 0 1.1-3V0a3.8 3.8 0 0 0-1.7.5 4.5 4.5 0 0 0-2.6 4v.3a3.6 3.6 0 0 0 3.2-1.5Z"/></svg>
