<svg xmlns="http://www.w3.org/2000/svg" viewBox="0 0 107.36 100.3"><path d="M107.36 35.86c-.34 1.89-.6 3.8-1.05 5.66a31.37 31.37 0 0 1-7.85 14.5C89.71 65.2 80.88 74.33 72.1 83.5a5.25 5.25 0 0 1-4.67 1.85 5.25 5.25 0 0 1-3.13-8.85c2.9-3.04 5.82-6.05 8.72-9.08 6.1-6.37 12.36-12.58 18.23-19.15 8.26-9.24 7.27-24.07-1.86-32.3a20.55 20.55 0 0 0-30.82 3.3c-.97 1.33-1.99 2.56-3.68 2.9a5.2 5.2 0 0 1-5.71-2.36 21.42 21.42 0 0 0-7.74-6.92c-10.03-5.27-22.02-1.58-27.82 8.55a23.5 23.5 0 0 0 3.53 28.11q20.03 20.77 40.04 41.56c2.78 2.89 2.08 7.2-1.39 8.73a5.25 5.25 0 0 1-6.1-1.38q-7.55-7.8-15.07-15.64l-25.03-26a33.94 33.94 0 0 1-1.49-45.68 30.98 30.98 0 0 1 44.62-3.08l.9.81a5.3 5.3 0 0 0 .6-.41c14.55-13.6 37.95-10.64 48.65 7.76a32.78 32.78 0 0 1 4.3 13.48 4.54 4.54 0 0 0 .18.7Z" /></svg>
