<svg xmlns="http://www.w3.org/2000/svg" viewBox="0 0 33.2 20"><path d="M29.4 3.2a3.1 3.1 0 0 1 2.1 0 3.3 3.3 0 0 1 .7.3v1.2a2.1 2.1 0 0 0-2.2-.3 2.2 2.2 0 0 0-1 2 2.4 2.4 0 0 0 1 2.1 3.4 3.4 0 0 0 2.2.3v1a5.3 5.3 0 0 1-1 .2 3.6 3.6 0 0 1-2-.4 3.1 3.1 0 0 1-1.4-1.5 4.6 4.6 0 0 1-.3-1.7 3.4 3.4 0 0 1 2-3.2ZM25.2 0a1 1 0 1 1-1 1 1 1 0 0 1 1-1Zm.8 3v7h-1.5V3Zm-7.8 5.2a8 8 0 0 0 2 .6 3.1 3.1 0 0 0 1.7-.3.5.5 0 0 0 .3-.4.7.7 0 0 0-.2-.4 2.2 2.2 0 0 0-1.2-.6 5.1 5.1 0 0 1-1.2-.5 2 2 0 0 1-1-2 2.1 2.1 0 0 1 1.6-1.4 4.3 4.3 0 0 1 3 .2v1.3a3.6 3.6 0 0 0-2.6-.4c-.3.1-.6.3-.6.6 0 .7.9.9 1.2 1a6.6 6.6 0 0 1 1.1.4 2 2 0 0 1 1.2 1.8 1.5 1.5 0 0 1-1 1.6 4.3 4.3 0 0 1-2.4.2 5.2 5.2 0 0 1-1.9-.7s0-1 0-1ZM11.5 3H13v4.8c0 .4.4.9 1 1a1.6 1.6 0 0 0 .9-.2l.6-.2V3H17v6.8h-1.5v-.2h-.1a2.8 2.8 0 0 1-1.5.4 2.7 2.7 0 0 1-1.6-.6 2.2 2.2 0 0 1-.8-1.5V5.4ZM.5 3H2v.7L3 3.3a2.1 2.1 0 0 1 2.3.6l1.7-.6a2.2 2.2 0 0 1 1.7.1A2.2 2.2 0 0 1 10 4.8a2.4 2.4 0 0 1 0 .5v.3l.1.7V10H8.5V5.2a.8.8 0 0 0-1-.7l-1.6.4a2.5 2.5 0 0 1 0 .4V10H4.6V5.2a.8.8 0 0 0-1-.7L2 4.9V10H.5V3ZM30 16a22 22 0 0 1-7.3 3.2 25.3 25.3 0 0 1-8 .7A27.1 27.1 0 0 1 .1 14.2a.3.3 0 0 1 .3-.4 38.6 38.6 0 0 0 7 2.9A31.9 31.9 0 0 0 15 18a31.3 31.3 0 0 0 7.4-.6 33.4 33.4 0 0 0 7.2-2.3.5.5 0 0 1 .5.8Zm1.1 2.9c-.3.2-.5.1-.4-.2.4-1.1 1.3-3.5 1-4-.6-.7-3-.4-4.2-.2-.3 0-.3-.3 0-.5a6 6 0 0 1 3.3-1c1.1 0 2.1.2 2.3.6.4.4-.1 3.7-2 5.3Z"/></svg>
