<svg xmlns="http://www.w3.org/2000/svg" viewBox="0 0 24.8 24.8"><path d="M12.4 0a12.4 12.4 0 1 0 12.4 12.4A12.4 12.4 0 0 0 12.4 0Zm5.7 17.9a.8.8 0 0 1-1 .2H17a12 12 0 0 0-4.2-1.6 14.7 14.7 0 0 0-2.8-.1 20.1 20.1 0 0 0-3.6.5 1.2 1.2 0 0 1-.4 0 .8.8 0 0 1-.8-.6.8.8 0 0 1 .5-.9h.2a20.5 20.5 0 0 1 3-.5l1.6-.1a15.5 15.5 0 0 1 4.8.7 12.5 12.5 0 0 1 2.4 1.1.4.4 0 0 1 .2.2.8.8 0 0 1 .3 1Zm1.5-3.4a1 1 0 0 1-1.3.3 8.6 8.6 0 0 0-.8-.4 15.6 15.6 0 0 0-4-1.4 16.3 16.3 0 0 0-3.2-.3 14.7 14.7 0 0 0-4.3.7.9.9 0 0 1-.7 0 1 1 0 0 1-.6-1 1 1 0 0 1 .6-.9l1.3-.3a21.6 21.6 0 0 1 3-.4 20 20 0 0 1 6.5.9 15.6 15.6 0 0 1 3 1.3.3.3 0 0 0 .2.1 1 1 0 0 1 .3 1.4Zm1.9-4.6a1.2 1.2 0 0 1-1.7 1 14 14 0 0 0-1.7-.7 17 17 0 0 0-3.5-1 20 20 0 0 0-2.5-.3 22 22 0 0 0-2.7 0 21.7 21.7 0 0 0-3 .4l-1.1.2a1 1 0 0 1-.7 0 1.2 1.2 0 0 1-.8-1 1.2 1.2 0 0 1 .8-1.2l1-.2a23.4 23.4 0 0 1 2.8-.5 26.3 26.3 0 0 1 2.9 0 24.3 24.3 0 0 1 7 1.1A17.7 17.7 0 0 1 20.9 9a1.2 1.2 0 0 1 .6.8Z"/></svg>
