<svg xmlns="http://www.w3.org/2000/svg" viewBox="0 0 81.4 81.8"><path d="M81.4 38.9c0-2.2-1.2-3.2-3.4-2.7l-1.3.2-.5-4A38.4 38.4 0 0 0 45.6.8L40.7 0H36l-5.4.8a38.4 38.4 0 0 0-9.8 71.7 37.3 37.3 0 0 0 18 4.3 1.3 1.3 0 0 1 1.2.7 9.3 9.3 0 0 0 6.3 4.1 3 3 0 0 1 .4.2h2.6a23.4 23.4 0 0 0 4-1.7 9 9 0 0 0 4.3-7.9V54.8l19-3.8v6.8h-1a40.4 40.4 0 0 0-6.1.4 9.4 9.4 0 0 0-7.1 9.8 9.6 9.6 0 0 0 19.1-.7V38.9M52.7 72.7a4.8 4.8 0 0 1-5 4.3 4.8 4.8 0 0 1-4.6-4.9 4.8 4.8 0 0 1 4.6-4.7h5v5.3M55 40.8a2.5 2.5 0 0 0-2.3 2.8v19h-4.8a9.4 9.4 0 0 0-7.3 3.4 9.6 9.6 0 0 0-2.3 6A33 33 0 0 1 9.6 55.7a33.6 33.6 0 1 1 62.2-18.4l-4.5 1-12.4 2.4m21.7 5-.6.4-15 3-3.5.7v-4.7l19.1-3.9v4.5m0 22.3a4.7 4.7 0 0 1-5.1 4 4.8 4.8 0 0 1-4.4-5 4.8 4.8 0 0 1 4.7-4.5h4.8a53.5 53.5 0 0 1 0 5.5" /><path d="M38.5 28.8a9.6 9.6 0 1 0 9.4 10 9.7 9.7 0 0 0-9.4-10m-.2 14.4a4.8 4.8 0 1 1 4.8-4.8 4.8 4.8 0 0 1-4.8 4.8" /></svg>
