<svg xmlns="http://www.w3.org/2000/svg" viewBox="0 0 200 200"><rect width="40" height="20" rx="10" opacity="0.2"></rect><rect y="60" width="60" height="20" rx="10"></rect><rect y="90" width="60" height="20" rx="10"></rect><rect x="70" y="90" width="80" height="20" rx="10" opacity="0.8"></rect><rect y="120" width="60" height="20" rx="10"></rect><rect x="50" width="150" height="20" rx="10"></rect><rect y="180" width="40" height="20" rx="10" opacity="0.2"></rect><rect x="50" y="180" width="150" height="20" rx="10"></rect><rect y="30" width="20" height="20" rx="10" opacity="0.2"></rect><rect x="180" y="30" width="20" height="20" rx="10" opacity="0.2"></rect><rect x="30" y="30" width="140" height="20" rx="10"></rect><rect x="70" y="60" width="130" height="20" rx="10" opacity="0.8"></rect><rect x="160" y="90" width="40" height="20" rx="10" opacity="0.2"></rect><rect x="180" y="120" width="20" height="20" rx="10" opacity="0.2"></rect><rect x="70" y="120" width="100" height="20" rx="10" opacity="0.8"></rect><rect y="150" width="20" height="20" rx="10" opacity="0.2"></rect><rect x="180" y="150" width="20" height="20" rx="10" opacity="0.2"></rect><rect x="30" y="150" width="140" height="20" rx="10"></rect></svg>
