<svg xmlns="http://www.w3.org/2000/svg" viewBox="0 0 615.1421 231.7993"><path d="M186.397,291.0532H170.3848a5.2933,5.2933,0,0,0-2.3081.71,7.9182,7.9182,0,0,0-2.3912,1.855A3.6987,3.6987,0,0,0,164.66,296.08v7.084a7.0613,7.0613,0,0,0,1.3794,4.2773,4.6226,4.6226,0,0,0,3.9394,1.7393h17.8252a5.9052,5.9052,0,0,0,3.686-1.168,4.6688,4.6688,0,0,0,1.5127-3.918v-7.4375a5.5144,5.5144,0,0,0-1.5908-3.9736Q189.8221,291.0481,186.397,291.0532Z" transform="translate(-99.0044 -184.1411)"></path><path d="M214.9072,184.1411a115.9,115.9,0,1,0,115.9,115.9068A115.917,115.917,0,0,0,214.9072,184.1411ZM194.3906,227.47c0-14.8017,9.1836-22.6513,20.5147-22.6513s20.5176,7.85,20.5176,22.6513v50.044H194.3906V227.47Zm-49.6528,91.0479H122.5884a5.0088,5.0088,0,0,1-.5313-0.0342H121.24a13.534,13.534,0,0,1-7.24-1.79,11.3845,11.3845,0,0,1-4.22-4.2774,10.1292,10.1292,0,0,1-1.3057-4.6758V292.4136a8.1382,8.1382,0,0,1,1.6846-4.8179,14.1073,14.1073,0,0,1,4.0381-3.8057,7.99,7.99,0,0,1,3.9345-1.4721h26.5957a4.2368,4.2368,0,0,1,0,8.4736h-1.2514v0.01H124.7852a5.1568,5.1568,0,0,0-2.66.832,7.2752,7.2752,0,0,0-2.2036,2.0679,4.0663,4.0663,0,0,0-.8594,2.3149v8.47a4.7647,4.7647,0,0,0,.6514,2.3789,5.4329,5.4329,0,0,0,1.895,1.917,5.0933,5.0933,0,0,0,2.4341.7559h20.6953A4.49,4.49,0,0,1,144.7378,318.5176Zm20.86-.0342a10.5727,10.5727,0,0,1-6.0737-1.79,12.4073,12.4073,0,0,1-4.0742-4.4707,10.7815,10.7815,0,0,1-1.4268-5.1114V293.5469a9.86,9.86,0,0,1,.9693-4.253,12.76,12.76,0,0,1,2.5586-3.5888,12.9486,12.9486,0,0,1,3.4687-2.4766,8.2608,8.2608,0,0,1,3.5908-.9106h27.3609a11.68,11.68,0,0,1,4.5361,1.2114,12.5925,12.5925,0,0,1,4.7959,3.9365,11.2,11.2,0,0,1,2.0894,7.0044v13.0249a9.7474,9.7474,0,0,1-1.6807,5.5137,13.2947,13.2947,0,0,1-4.0757,4.0039,8.4747,8.4747,0,0,1-4.2544,1.4707H165.5981Zm69.8248,54.1279c0,14.8076-9.188,22.6524-20.5176,22.6524s-20.5147-7.8448-20.5147-22.6524V323.0977h41.0323v49.5136Zm34.7495-76.394v17.2446a5.2378,5.2378,0,0,1-10.462,0V296.2173c0-.0913.0079-0.186,0.0157-0.2842a1.4454,1.4454,0,0,0-.461-0.8857,1.3347,1.3347,0,0,0-.8647-0.4248,1.5862,1.5862,0,0,0-1.5679.9931l-12.5346,22.8179h-9.88l-13.34-23.6777a1.369,1.369,0,0,0-.63-0.54,1.4478,1.4478,0,0,0-.6255-0.1137,1.05,1.05,0,0,0-.8628.498,1.7606,1.7606,0,0,0-.377,1.0645v0.8383c0.002,0.0791.0088,0.1485,0.0088,0.2246v16.85a5.1593,5.1593,0,0,1-10.3008,0v-16.85a4.73,4.73,0,0,1,.0547-0.6792v-5.4477a7.3122,7.3122,0,0,1,.981-3.7193,9.7244,9.7244,0,0,1,2.4741-2.8681,12.5384,12.5384,0,0,1,3.1465-1.8032,8.3729,8.3729,0,0,1,2.9038-.646,9.4655,9.4655,0,0,1,5.9087,1.8047,21.5286,21.5286,0,0,1,4.9883,6.1923l10.3364,18.6353,10.6387-18.6817a19.5066,19.5066,0,0,1,4.51-5.9184,9.1657,9.1657,0,0,1,6.0591-2.0322,9.4653,9.4653,0,0,1,3.9673.8383,9.8727,9.8727,0,0,1,3.1943,2.2388,10.001,10.001,0,0,1,2.022,3.1118,8.5388,8.5388,0,0,1,.6978,3.27v5.1948Zm49.705,6.6382q-1.4648,2.0888-4.89,2.0849h-29.51v8.5723a5.2393,5.2393,0,0,1-10.4648,0V296.2173h33.7954a1.8845,1.8845,0,0,0,1.3594-.7813,2.5588,2.5588,0,0,0,.6777-1.7348,2.9,2.9,0,0,0-.3276-1.6192,2.3557,2.3557,0,0,0-1.5293-1.1772H279.2388a4.294,4.294,0,0,1,0-8.5869h34.7578q4.0686,0,5.71,1.9809a7.4687,7.4687,0,0,1,1.6319,4.958v8.4737A8.7835,8.7835,0,0,1,319.8774,302.8555Z" transform="translate(-99.0044 -184.1411)"></path><rect x="104.3975" y="107.4434" width="4.8339" height="14.9253"></rect><path d="M663.4834,230.3569a8.7521,8.7521,0,0,1,2.4014.3c0.0244-.1.0625-0.2876,0.1123-0.563l0.1884-1.1635q0.15-.75.375-1.9888l0.6006-2.9648,7.4678-.7505-4.166,21.7666a3.8978,3.8978,0,0,0-.0371.6v0.6005a2.5411,2.5411,0,0,0,.4131,1.4449,1.2537,1.2537,0,0,0,1.0879.6191,4.62,4.62,0,0,1-3.04,2.5147,6.9715,6.9715,0,0,1-1.8945.2251,4.2023,4.2023,0,0,1-2.1211-.5816,2.695,2.695,0,0,1-1.3135-1.5576,4.1846,4.1846,0,0,1-1.8008,1.5576,6.7252,6.7252,0,0,1-2.9463.5816,10.6777,10.6777,0,0,1-3.1894-.45,5.23,5.23,0,0,1-2.3457-1.4263q-1.6524-1.9139-1.6514-6.2671a12.4577,12.4577,0,0,1,3.3028-9.0444A11.3068,11.3068,0,0,1,663.4834,230.3569Zm-0.2627,2.2515a2.3323,2.3323,0,0,0-2.14,1.5015,23.6375,23.6375,0,0,0-1.52,5.2163,34.7894,34.7894,0,0,0-.7695,7.0556q0,2.29,1.3506,2.2891a2.4569,2.4569,0,0,0,2.0459-1.2012,7.7611,7.7611,0,0,0,1.1816-3.19l2.0264-10.9956A3.2356,3.2356,0,0,0,663.2207,232.6084Z" transform="translate(-99.0044 -184.1411)"></path><path d="M683.2979,250.9976q-8.2573,0-8.2569-7.7686a13.5072,13.5072,0,0,1,3.04-9.0815,10.9727,10.9727,0,0,1,8.8193-3.7906q4.0532,0,6.1172,1.8765t2.0644,5.8169q0,6.0051-3.2275,9.4946A11.0115,11.0115,0,0,1,683.2979,250.9976Zm0.9755-16.3247a14.4441,14.4441,0,0,0-.8066,2.5332q-0.3574,1.52-.8066,3.9213a29.1938,29.1938,0,0,0-.4512,5.3667,3.5947,3.5947,0,0,0,.3193,1.6138,1.1978,1.1978,0,0,0,1.1826.6382,2.2625,2.2625,0,0,0,1.4073-.4131,3.3472,3.3472,0,0,0,.957-1.3887,24.057,24.057,0,0,0,1.3506-4.935,36.9118,36.9118,0,0,0,.6572-4.5972q0.0556-1.388.0557-2.42a4.2179,4.2179,0,0,0-.3-1.7075,1.1346,1.1346,0,0,0-1.1446-.6758,1.982,1.982,0,0,0-1.4072.5254A4.69,4.69,0,0,0,684.2734,234.6729Z" transform="translate(-99.0044 -184.1411)"></path><path d="M708.5176,237.0747a7.3617,7.3617,0,0,0,.5254-2.59q0-2.2134-1.8018-2.2139a2.2743,2.2743,0,0,0-1.707.8442,2.7408,2.7408,0,0,0-.77,1.8951,1.8649,1.8649,0,0,0,.6006,1.351,19.5185,19.5185,0,0,0,3.0772,2.1768,11.3714,11.3714,0,0,1,3.0586,2.458,4.21,4.21,0,0,1,.8447,2.6269,6.15,6.15,0,0,1-.7324,2.9087,6.9682,6.9682,0,0,1-2.0449,2.3643,11.9217,11.9217,0,0,1-7.3184,2.1016,7.4906,7.4906,0,0,1-4.3154-1.2759,3.3969,3.3969,0,0,1-1.877-2.7022,2.8343,2.8343,0,0,1,1.0694-2.3266,4.0822,4.0822,0,0,1,2.6464-.8633,4.8219,4.8219,0,0,1,2.5518.6006,5.89,5.89,0,0,0-.4883,2.0639q0,2.4771,2.1016,2.4771a2.1084,2.1084,0,0,0,1.501-.563,2.0065,2.0065,0,0,0,.6005-1.5386q0-1.9144-3.2275-3.94a20.4133,20.4133,0,0,1-3.2275-2.4019,4.0839,4.0839,0,0,1-1.0127-2.7021,6.4739,6.4739,0,0,1,.7129-2.9273,7.0064,7.0064,0,0,1,2.0263-2.4394,12.0522,12.0522,0,0,1,7.5059-2.1016,6.8466,6.8466,0,0,1,3.8847.9756,3.0231,3.0231,0,0,1,1.4444,2.627,3.3887,3.3887,0,0,1-.9942,2.5893,3.9143,3.9143,0,0,1-2.7959.9385A3.2739,3.2739,0,0,1,708.5176,237.0747Z" transform="translate(-99.0044 -184.1411)"></path><path d="M353.249,252.4551a11.656,11.656,0,0,1-2.5517-5.0288,33.7176,33.7176,0,0,1-.7886-8.106,26.9859,26.9859,0,0,1,1.7266-9.6074,23.0279,23.0279,0,0,1,4.8789-7.8809q6.454-6.9052,17.1128-6.9052a15.7165,15.7165,0,0,1,6.6054,1.2758l12.8345-1.2758-5.5542,29.2719a11.1364,11.1364,0,0,0-.2251,2.5523,3.7315,3.7315,0,0,0,1.0132,2.7021,3.9164,3.9164,0,0,0,2.5146,1.2007,6.7848,6.7848,0,0,1-3.49,4.0532,11.931,11.931,0,0,1-5.8169,1.501,10.3545,10.3545,0,0,1-5.1416-1.1631,5.3594,5.3594,0,0,1-2.6646-3.1152,8.6747,8.6747,0,0,1-3.7529,3.0776,13.8934,13.8934,0,0,1-5.9668,1.2007,20.0079,20.0079,0,0,1-6.1924-.9A10.2186,10.2186,0,0,1,353.249,252.4551Zm15.8369-30.4732a16.2947,16.2947,0,0,0-1.6137,3.64q-0.7507,2.291-1.9888,8.4067a54.0417,54.0417,0,0,0-1.2383,10.47q0,4.3544.6753,5.6294a2.067,2.067,0,0,0,1.8765,1.2759,5.1564,5.1564,0,0,0,4.1655-2.2891,14.0942,14.0942,0,0,0,2.44-6.3423l3.978-21.9916a5.1481,5.1481,0,0,0-3.4151-1.3511,6.0723,6.0723,0,0,0-2.9272.6A5.5794,5.5794,0,0,0,369.0859,221.9819Z" transform="translate(-99.0044 -184.1411)"></path><path d="M402.1484,223.333a21.9839,21.9839,0,0,1,6.4175-6.0049,15.9623,15.9623,0,0,1,8.5943-2.4013q4.7284,0,6.98,1.5009l14.711-1.5009-5.1036,28.8217q-2.6279,14.7121-8.1816,20.4908-5.329,5.4784-15.687,5.4795-7.8808,0-12.3843-2.4771t-4.5034-6.605a5.7429,5.7429,0,0,1,2.3267-4.8413,9.5433,9.5433,0,0,1,5.93-1.7637,10.6829,10.6829,0,0,1,5.5542,1.4258,5.41,5.41,0,0,1,2.1016,1.8013,5.0093,5.0093,0,0,0-1.7266,3.978q0,3.2263,3.0025,3.2276,5.0274,0,7.8808-11.8589,0.8254-3.2264,1.5015-6.4551-3.3779,4.1286-11.0337,4.1284-5.33,0-8.4062-2.5522-3.0784-2.55-3.0777-8.5567a27.7647,27.7647,0,0,1,1.2764-7.9936A26.8667,26.8667,0,0,1,402.1484,223.333Zm9.7574,16.0625q0,5.105,2.6274,5.1035a4.8248,4.8248,0,0,0,3.5273-1.9511,8.8912,8.8912,0,0,0,1.8765-3.9034l3.8286-19.29a4.1412,4.1412,0,0,1-.7519-0.2251,4.6283,4.6283,0,0,0-1.7256-.3q-4.5791,0-7.28,7.5058A38.4275,38.4275,0,0,0,411.9058,239.3955Z" transform="translate(-99.0044 -184.1411)"></path><path d="M472.1768,242.0225a4.5906,4.5906,0,0,1,1.8769,4.09,7.22,7.22,0,0,1-1.4258,4.6162,11.3229,11.3229,0,0,1-3.7529,3.0024,21.5222,21.5222,0,0,1-9.9834,2.4766,24.3208,24.3208,0,0,1-8.2187-1.1255,13.3648,13.3648,0,0,1-5.0665-3.2275q-3.9784-3.9778-3.9775-11.2588,0-11.3328,6.1543-18.2388,6.6049-7.4312,18.0889-7.4306,7.1309,0,10.6582,3.0019a7.4313,7.4313,0,0,1,2.6269,5.93q0,13.2114-22.8174,13.21a23.8223,23.8223,0,0,0-.3,3.603q0,3.4533,1.5381,4.7661a6.5708,6.5708,0,0,0,4.3916,1.3135,14.8086,14.8086,0,0,0,5.8916-1.3135A8.9961,8.9961,0,0,0,472.1768,242.0225Zm-19.14-35.2022,14.6367-9.7573,11.4834,9.8325-3.7529,4.5781L466.623,206.07l-11.1084,5.4038Zm3.8281,27.0205a10.9264,10.9264,0,0,0,8.4063-3.3022,11.2161,11.2161,0,0,0,3.0781-8.1812,4.717,4.717,0,0,0-.6387-2.6645,2.1611,2.1611,0,0,0-1.914-.9385,5.722,5.722,0,0,0-2.3643.4878,5.8592,5.8592,0,0,0-2.2138,2.1391Q458.4414,225.1358,456.8652,233.8408Z" transform="translate(-99.0044 -184.1411)"></path><path d="M513.459,256.208q-9.0821,0-9.082-7.0552a39.2032,39.2032,0,0,1,.6757-5.2539l1.3506-6.9052q2.0274-9.7566,2.0264-11.9346,0-4.3521-2.5518-4.353-4.2772,0-6.53,11.1835L494.92,254.707l-15.0869,1.501,7.8057-39.8555,12.3095-1.4257-1.2,7.3554q3.5259-7.355,14.336-7.3554,5.2528,0,7.4678,2.2138,2.2133,2.2149,2.2138,7.168,0,4.6552-2.4013,15.5371a36.1422,36.1422,0,0,0-1.126,6.7178,3.9862,3.9862,0,0,0,1.0137,2.89,3.9124,3.9124,0,0,0,2.5136,1.2007,6.8568,6.8568,0,0,1-3.34,4.0532A11.6823,11.6823,0,0,1,513.459,256.208Z" transform="translate(-99.0044 -184.1411)"></path><path d="M565.623,223.4829a6.07,6.07,0,0,1-2.6269,5.104,11.2929,11.2929,0,0,1-6.9053,1.9517,6.441,6.441,0,0,1-2.8515-.5254,15.5111,15.5111,0,0,0,1.0878-4.3911q0.2624-2.4382.2627-3.1148,0-3.1522-2.1767-3.1523a4.5969,4.5969,0,0,0-3.1895,1.8764,20.6937,20.6937,0,0,0-3.1152,4.8038,31.8674,31.8674,0,0,0-3.1523,13.5854q0,3.7536,1.4257,5.4414t4.5791,1.689a10.571,10.571,0,0,0,7.8057-3.6031,8.7629,8.7629,0,0,0,1.501-2.4018q2.8519,1.5028,2.8525,5.6294,0,4.2048-4.6533,6.9805-4.8046,2.8512-12.46,2.852-15.2373,0-15.2363-16.1372,0-11.7832,6.68-18.5391,6.454-6.6042,18.3144-6.6049Q565.6225,214.9268,565.623,223.4829Z" transform="translate(-99.0044 -184.1411)"></path><path d="M585.6631,250.5791q-2.3277,5.6286-9.7578,5.6289a8.052,8.052,0,0,1-6.2295-2.6269,7.1185,7.1185,0,0,1-2.0264-4.6534q0-6.08,2.7764-17.9389l2.7773-14.5611,15.2373-1.5009-4.5791,23.7177a41.612,41.612,0,0,0-1.2754,7.5059Q582.5859,250.4284,585.6631,250.5791Zm-11.1084-44.5845a5.0507,5.0507,0,0,1,2.4394-4.5034,10.7613,10.7613,0,0,1,5.9668-1.5762,9.3355,9.3355,0,0,1,5.667,1.5762,5.258,5.258,0,0,1,2.1387,4.5034,4.9124,4.9124,0,0,1-2.3643,4.4283,10.7791,10.7791,0,0,1-5.8916,1.5014,10.0276,10.0276,0,0,1-5.7421-1.5014A5.0027,5.0027,0,0,1,574.5547,205.9946Z" transform="translate(-99.0044 -184.1411)"></path><path d="M595.3076,252.4551a11.6507,11.6507,0,0,1-2.5517-5.0288,33.7467,33.7467,0,0,1-.7881-8.106,26.9965,26.9965,0,0,1,1.7256-9.6074,23.0431,23.0431,0,0,1,4.8789-7.8809q6.4556-6.9052,17.1132-6.9052a15.72,15.72,0,0,1,6.6055,1.2758l12.835-1.2758-5.5547,29.2719a11.1031,11.1031,0,0,0-.2256,2.5523,3.73,3.73,0,0,0,1.0137,2.7021,3.9152,3.9152,0,0,0,2.5146,1.2007,6.7851,6.7851,0,0,1-3.49,4.0532,11.9315,11.9315,0,0,1-5.8174,1.501,10.3516,10.3516,0,0,1-5.1406-1.1631,5.3617,5.3617,0,0,1-2.6651-3.1152,8.6774,8.6774,0,0,1-3.7529,3.0776,13.8922,13.8922,0,0,1-5.9668,1.2007,20.01,20.01,0,0,1-6.1924-.9A10.2187,10.2187,0,0,1,595.3076,252.4551Zm15.8369-30.4732a16.2688,16.2688,0,0,0-1.6132,3.64q-0.7515,2.291-1.9893,8.4067a54.08,54.08,0,0,0-1.2383,10.47q0,4.3544.6758,5.6294a2.0664,2.0664,0,0,0,1.876,1.2759,5.1585,5.1585,0,0,0,4.166-2.2891,14.11,14.11,0,0,0,2.4394-6.3423l3.9776-21.9916a5.148,5.148,0,0,0-3.4151-1.3511,6.07,6.07,0,0,0-2.9267.6A5.58,5.58,0,0,0,611.1445,221.9819Z" transform="translate(-99.0044 -184.1411)"></path><path d="M411.8594,204.3252a5.8282,5.8282,0,0,1-1.2759-2.5142,16.8789,16.8789,0,0,1-.394-4.0532,13.5012,13.5012,0,0,1,.8627-4.8037,11.5213,11.5213,0,0,1,2.4395-3.94,11.16,11.16,0,0,1,8.5571-3.4527,7.8626,7.8626,0,0,1,3.3018.6377l6.418-.6377-2.7774,14.6363a5.5528,5.5528,0,0,0-.1123,1.2758,1.865,1.865,0,0,0,.5068,1.3511,1.9547,1.9547,0,0,0,1.2569.6006,3.3909,3.3909,0,0,1-1.7451,2.0264,5.97,5.97,0,0,1-2.9082.75,5.1781,5.1781,0,0,1-2.5713-.5816,2.68,2.68,0,0,1-1.3321-1.5576,4.3369,4.3369,0,0,1-1.8764,1.5386,6.9461,6.9461,0,0,1-2.9834.6006,9.9975,9.9975,0,0,1-3.0962-.45A5.1109,5.1109,0,0,1,411.8594,204.3252Zm7.9184-15.2363a8.1261,8.1261,0,0,0-.8066,1.82q-0.3757,1.1456-.9946,4.2031a27.0467,27.0467,0,0,0-.6192,5.2354,7.28,7.28,0,0,0,.3379,2.8149,1.0337,1.0337,0,0,0,.938.6377,2.5788,2.5788,0,0,0,2.083-1.1445,7.056,7.056,0,0,0,1.22-3.1714l1.9888-10.9956a2.5732,2.5732,0,0,0-1.708-.6758,3.0371,3.0371,0,0,0-1.4629.3A2.7892,2.7892,0,0,0,419.7778,189.0889Z" transform="translate(-99.0044 -184.1411)"></path><path d="M365.1582,330.3408a14.481,14.481,0,0,1-3.1689-6.2451,41.9085,41.9085,0,0,1-.9786-10.0654,33.5139,33.5139,0,0,1,2.1436-11.93,28.6051,28.6051,0,0,1,6.0581-9.7861q8.0149-8.5746,21.25-8.5748a19.5172,19.5172,0,0,1,8.2022,1.5845l15.9375-1.5845-6.897,36.3492a13.7924,13.7924,0,0,0-.28,3.1679,4.6306,4.6306,0,0,0,1.2583,3.3555,4.8562,4.8562,0,0,0,3.1221,1.4912,8.424,8.424,0,0,1-4.3335,5.0332,14.8193,14.8193,0,0,1-7.2232,1.8643,12.8526,12.8526,0,0,1-6.3847-1.4453,6.6512,6.6512,0,0,1-3.3086-3.8672,10.7769,10.7769,0,0,1-4.66,3.8213,17.2521,17.2521,0,0,1-7.4092,1.4912,24.85,24.85,0,0,1-7.6894-1.1182A12.701,12.701,0,0,1,365.1582,330.3408Zm19.6655-37.84a20.2129,20.2129,0,0,0-2.0039,4.5205q-0.9324,2.844-2.47,10.439a67.1337,67.1337,0,0,0-1.5376,13.0009q0,5.4068.8389,6.99a2.5667,2.5667,0,0,0,2.33,1.5849,6.4044,6.4044,0,0,0,5.1724-2.8427,17.5027,17.5027,0,0,0,3.0293-7.876l4.9395-27.3081a6.3949,6.3949,0,0,0-4.2408-1.6778,7.5409,7.5409,0,0,0-3.6347.7456A6.9334,6.9334,0,0,0,384.8237,292.5005Z" transform="translate(-99.0044 -184.1411)"></path><path d="M448.8066,306.9473a24.3046,24.3046,0,0,0,3.3555-12.0235q0-4.0063-2.8906-4.0078-2.2353,0-4.5664,3.8213a22.3648,22.3648,0,0,0-3.168,8.7607l-4.8476,29.6387L417.397,335.001l9.5073-49.3975,15.377-1.8638-1.6778,9.4131q4.5673-9.4124,14.82-9.4131,5.4024,0,8.3418,2.7959,2.9356,2.7964,2.9356,8.5279a12.4267,12.4267,0,0,1-3.7754,9.3672q-3.7734,3.6342-10.2051,3.6347Q449.9229,308.0654,448.8066,306.9473Z" transform="translate(-99.0044 -184.1411)"></path><path d="M469.6826,323.8164a51.9181,51.9181,0,0,1,1.3057-8.8545l4.9394-25.164h-5.499l0.3731-2.7959a69.6162,69.6162,0,0,0,21.9951-11.5572H497.27l-2.2363,10.1587h7.2695l-0.8389,4.1944h-7.1767l-4.7529,25.164a47.3962,47.3962,0,0,0-1.212,7.7363q0,4.4738,3.9151,5.4053a8.4455,8.4455,0,0,1-4.2871,5.0332,16.476,16.476,0,0,1-8.1094,1.8643,9.5568,9.5568,0,0,1-7.4561-2.9824Q469.6817,329.0362,469.6826,323.8164Z" transform="translate(-99.0044 -184.1411)"></path><path d="M524.2061,328.0107q-2.89,6.99-12.1163,6.99a10,10,0,0,1-7.7363-3.2627,8.8416,8.8416,0,0,1-2.5166-5.7783q0-7.5484,3.4492-22.2754l3.4483-18.0811,18.92-1.8638-5.6855,29.4517a51.7283,51.7283,0,0,0-1.584,9.32Q520.3848,327.8247,524.2061,328.0107Zm-13.794-55.3623a6.2713,6.2713,0,0,1,3.0293-5.5918,13.3607,13.3607,0,0,1,7.4092-1.9575,11.5912,11.5912,0,0,1,7.0371,1.9575,6.5294,6.5294,0,0,1,2.6562,5.5918,6.1,6.1,0,0,1-2.9365,5.4991,13.3912,13.3912,0,0,1-7.3164,1.8642,12.455,12.455,0,0,1-7.13-1.8642A6.2144,6.2144,0,0,1,510.4121,272.6484Z" transform="translate(-99.0044 -184.1411)"></path><path d="M559.9951,300.4229a18.2541,18.2541,0,0,0,1.3047-6.4312q0-5.4983-4.4736-5.4985a5.6584,5.6584,0,0,0-4.2412,2.0966,6.8126,6.8126,0,0,0-1.91,4.7071,4.6285,4.6285,0,0,0,1.4912,3.355,48.4494,48.4494,0,0,0,7.6426,5.4057q5.4975,3.356,7.5957,6.1045a10.4473,10.4473,0,0,1,2.0967,6.5244,15.2855,15.2855,0,0,1-1.8174,7.2237,17.31,17.31,0,0,1-5.0791,5.8711q-6.99,5.2191-18.1748,5.22a18.6114,18.6114,0,0,1-10.7178-3.169q-4.6611-3.0761-4.66-6.7109a7.04,7.04,0,0,1,2.6562-5.7783,10.1272,10.1272,0,0,1,6.57-2.1436,11.972,11.972,0,0,1,6.3379,1.4912,14.6164,14.6164,0,0,0-1.2109,5.126q0,6.1509,5.2187,6.1514a5.2394,5.2394,0,0,0,3.7285-1.3985,4.9837,4.9837,0,0,0,1.4913-3.82q0-4.7534-8.0157-9.7871-6.5244-4.2846-8.0156-5.9648a10.1319,10.1319,0,0,1-2.5166-6.71,16.0735,16.0735,0,0,1,1.7715-7.27A17.4244,17.4244,0,0,1,542.1,288.959q6.8028-5.2185,18.6406-5.2193,6.0571,0,9.6465,2.4234a7.5083,7.5083,0,0,1,3.5889,6.5239,8.4168,8.4168,0,0,1-2.4707,6.4312,9.7218,9.7218,0,0,1-6.9434,2.33A8.1317,8.1317,0,0,1,559.9951,300.4229Z" transform="translate(-99.0044 -184.1411)"></path><path d="M578.9141,323.8164a51.9148,51.9148,0,0,1,1.3056-8.8545l4.9395-25.164H579.66l0.373-2.7959a69.6152,69.6152,0,0,0,21.9951-11.5572h4.4737l-2.2364,10.1587h7.27l-0.8389,4.1944h-7.1768l-4.7529,25.164a47.3938,47.3938,0,0,0-1.2119,7.7363q0,4.4738,3.915,5.4053a8.4451,8.4451,0,0,1-4.2871,5.0332,16.4757,16.4757,0,0,1-8.1094,1.8643,9.5564,9.5564,0,0,1-7.456-2.9824Q578.9131,329.0362,578.9141,323.8164Z" transform="translate(-99.0044 -184.1411)"></path><path d="M614.75,330.3408a14.4754,14.4754,0,0,1-3.1689-6.2451,41.9085,41.9085,0,0,1-.9786-10.0654,33.5249,33.5249,0,0,1,2.1436-11.93,28.5907,28.5907,0,0,1,6.0586-9.7861q8.0142-8.5746,21.25-8.5748a19.5092,19.5092,0,0,1,8.2012,1.5845l15.9375-1.5845-6.8965,36.3492a13.7973,13.7973,0,0,0-.2793,3.1679,4.63,4.63,0,0,0,1.2578,3.3555,4.8573,4.8573,0,0,0,3.1221,1.4912,8.4249,8.4249,0,0,1-4.334,5.0332,14.816,14.816,0,0,1-7.2227,1.8643,12.8513,12.8513,0,0,1-6.3847-1.4453,6.6547,6.6547,0,0,1-3.3086-3.8672,10.7769,10.7769,0,0,1-4.66,3.8213,17.2552,17.2552,0,0,1-7.4092,1.4912,24.8478,24.8478,0,0,1-7.6894-1.1182A12.6954,12.6954,0,0,1,614.75,330.3408Zm19.666-37.84a20.1441,20.1441,0,0,0-2.0039,4.5205q-0.9331,2.844-2.47,10.439a67.101,67.101,0,0,0-1.5381,13.0009q0,5.4068.8389,6.99a2.5657,2.5657,0,0,0,2.33,1.5849,6.4066,6.4066,0,0,0,5.1729-2.8427,17.5027,17.5027,0,0,0,3.0283-7.876l4.94-27.3081a6.3948,6.3948,0,0,0-4.2412-1.6778,7.5409,7.5409,0,0,0-3.6347.7456A6.924,6.924,0,0,0,634.416,292.5005Z" transform="translate(-99.0044 -184.1411)"></path><path d="M697.0928,300.4229a18.2563,18.2563,0,0,0,1.3047-6.4312q0-5.4983-4.4737-5.4985a5.6587,5.6587,0,0,0-4.2412,2.0966,6.813,6.813,0,0,0-1.91,4.7071,4.6286,4.6286,0,0,0,1.4912,3.355,48.45,48.45,0,0,0,7.6426,5.4057q5.4975,3.356,7.5957,6.1045a10.4473,10.4473,0,0,1,2.0966,6.5244,15.2854,15.2854,0,0,1-1.8173,7.2237,17.31,17.31,0,0,1-5.0792,5.8711q-6.99,5.2191-18.1748,5.22a18.6111,18.6111,0,0,1-10.7177-3.169q-4.6613-3.0761-4.66-6.7109a7.04,7.04,0,0,1,2.6563-5.7783,10.1272,10.1272,0,0,1,6.57-2.1436,11.9723,11.9723,0,0,1,6.3379,1.4912,14.6169,14.6169,0,0,0-1.211,5.126q0,6.1509,5.2188,6.1514a5.2394,5.2394,0,0,0,3.7285-1.3985,4.9837,4.9837,0,0,0,1.4912-3.82q0-4.7534-8.0156-9.7871-6.5244-4.2846-8.0156-5.9648a10.1314,10.1314,0,0,1-2.5166-6.71,16.0745,16.0745,0,0,1,1.7714-7.27,17.4245,17.4245,0,0,1,5.0323-6.0581Q686,283.7405,697.8379,283.74q6.0572,0,9.6465,2.4234a7.5081,7.5081,0,0,1,3.5888,6.5239,8.4168,8.4168,0,0,1-2.4707,6.4312,9.7214,9.7214,0,0,1-6.9433,2.33A8.1315,8.1315,0,0,1,697.0928,300.4229Z" transform="translate(-99.0044 -184.1411)"></path><path d="M403.8594,400.9688l9.457-49.1631q8.8557-.7486,14.5615-0.75a73.7573,73.7573,0,0,1,9.3819.4873,18.9231,18.9231,0,0,1,6.1552,1.7636q4.9527,2.4039,4.9532,9.0069a9.7264,9.7264,0,0,1-3.3018,7.0556,13.1674,13.1674,0,0,1-6.4551,3.6026,10.6831,10.6831,0,0,1,6.1543,3.3027,10.16,10.16,0,0,1,2.7022,7.28,16.2855,16.2855,0,0,1-6.38,13.5478q-6.3808,4.9936-18.9141,4.9922A159.0284,159.0284,0,0,1,403.8594,400.9688Zm16.6626-4.3536c0.4507,0.0508.7251,0.0752,0.8257,0.0752h0.6757q6.1539,0,8.7813-4.0537,1.9512-3.1523,1.9521-8.9316a5.8025,5.8025,0,0,0-1.9892-4.7285q-1.9893-1.6494-6.4922-1.8018Zm15.1616-34.2265q0-6.2286-6.0049-6.2295h-0.6748a4.748,4.748,0,0,0-.751.0752l-3.0019,15.8369h0.75Q435.6836,371.8457,435.6836,362.3887Z" transform="translate(-99.0044 -184.1411)"></path><path d="M475.9141,380.2529a19.5672,19.5672,0,0,0,2.7021-9.6826q0-3.2271-2.3262-3.2275-1.8017,0-3.6777,3.0771a18.0368,18.0368,0,0,0-2.5527,7.0557l-3.9024,23.8682L450.62,402.8447l7.6563-39.78,12.3838-1.501-1.3506,7.581q3.6766-7.5806,11.9336-7.581a9.3555,9.3555,0,0,1,6.7177,2.2519q2.3643,2.2515,2.3643,6.8672a10.0081,10.0081,0,0,1-3.0391,7.543,11.35,11.35,0,0,1-8.2187,2.9277A4.3955,4.3955,0,0,1,475.9141,380.2529Z" transform="translate(-99.0044 -184.1411)"></path><path d="M494.791,399.0918a11.656,11.656,0,0,1-2.5517-5.0283,33.7592,33.7592,0,0,1-.7881-8.1065,26.9982,26.9982,0,0,1,1.7256-9.6074,23.0427,23.0427,0,0,1,4.8789-7.8808q6.4555-6.9054,17.1132-6.9053a15.734,15.734,0,0,1,6.6055,1.2754l12.835-1.2754-5.5547,29.2724a11.0952,11.0952,0,0,0-.2256,2.5518,3.7291,3.7291,0,0,0,1.0137,2.7021,3.9158,3.9158,0,0,0,2.5146,1.2012,6.7844,6.7844,0,0,1-3.49,4.0528,11.9369,11.9369,0,0,1-5.8174,1.5009,10.3463,10.3463,0,0,1-5.1406-1.1631,5.3611,5.3611,0,0,1-2.6651-3.1152,8.6735,8.6735,0,0,1-3.7529,3.0772,13.8921,13.8921,0,0,1-5.9668,1.2011,19.9952,19.9952,0,0,1-6.1924-.9A10.2212,10.2212,0,0,1,494.791,399.0918Zm15.8369-30.4727a16.2575,16.2575,0,0,0-1.6133,3.64q-0.7513,2.2909-1.9892,8.4062a54.09,54.09,0,0,0-1.2383,10.4707q0,4.3536.6758,5.63a2.0674,2.0674,0,0,0,1.876,1.2754,5.1573,5.1573,0,0,0,4.166-2.289,14.1111,14.1111,0,0,0,2.4394-6.3428l3.9776-21.9912a5.1462,5.1462,0,0,0-3.4151-1.3516,6.0757,6.0757,0,0,0-2.9267.6006A5.5789,5.5789,0,0,0,510.6279,368.6191Z" transform="translate(-99.0044 -184.1411)"></path><path d="M561.1035,374.999a14.7,14.7,0,0,0,1.0508-5.18q0-4.4266-3.6025-4.4277a4.5555,4.5555,0,0,0-3.4151,1.6885,5.4849,5.4849,0,0,0-1.5381,3.79,3.7288,3.7288,0,0,0,1.2,2.7022,39.0689,39.0689,0,0,0,6.1553,4.3535,22.7242,22.7242,0,0,1,6.1172,4.916,8.4132,8.4132,0,0,1,1.6885,5.2539,12.31,12.31,0,0,1-1.4639,5.8174,13.9405,13.9405,0,0,1-4.0908,4.7285q-5.628,4.2027-14.6358,4.2031a14.9911,14.9911,0,0,1-8.6318-2.5517q-3.7544-2.4771-3.7529-5.4043a5.6668,5.6668,0,0,1,2.14-4.6533,8.156,8.156,0,0,1,5.291-1.7266A9.6445,9.6445,0,0,1,548.72,389.71a11.7534,11.7534,0,0,0-.9756,4.1279q0,4.9541,4.2032,4.9541a4.2181,4.2181,0,0,0,3.0019-1.126,4.0159,4.0159,0,0,0,1.2012-3.0771q0-3.8292-6.4551-7.8809a40.7306,40.7306,0,0,1-6.4551-4.8037,8.1644,8.1644,0,0,1-2.0263-5.4043,12.9487,12.9487,0,0,1,1.4257-5.8545,14.0149,14.0149,0,0,1,4.0538-4.8789q5.4769-4.2027,15.0107-4.2031a13.6894,13.6894,0,0,1,7.7686,1.9511,6.0473,6.0473,0,0,1,2.89,5.254,6.7745,6.7745,0,0,1-1.9883,5.1787,7.8293,7.8293,0,0,1-5.5918,1.8769A6.5562,6.5562,0,0,1,561.1035,374.999Z" transform="translate(-99.0044 -184.1411)"></path><path d="M593.1523,397.2158q-2.3275,5.6295-9.7578,5.6289a8.0518,8.0518,0,0,1-6.2295-2.6269,7.1187,7.1187,0,0,1-2.0263-4.6533q0-6.0807,2.7763-17.9385l2.7774-14.5615,15.2373-1.501-4.5791,23.7178a41.6034,41.6034,0,0,0-1.2754,7.5058Q590.0752,397.0658,593.1523,397.2158Zm-11.1084-44.584a5.0508,5.0508,0,0,1,2.4395-4.5039,10.7613,10.7613,0,0,1,5.9668-1.5761,9.3357,9.3357,0,0,1,5.667,1.5761,5.2582,5.2582,0,0,1,2.1387,4.5039,4.9121,4.9121,0,0,1-2.3643,4.4278A10.7792,10.7792,0,0,1,590,358.5605a10.0282,10.0282,0,0,1-5.7422-1.5009A5.0026,5.0026,0,0,1,582.0439,352.6318Z" transform="translate(-99.0044 -184.1411)"></path><path d="M617.4707,397.2158q-2.3277,5.6295-9.7578,5.6289a7.9636,7.9636,0,0,1-6.1543-2.6269,6.8663,6.8663,0,0,1-1.9522-4.6533q0-5.6295,2.628-17.9385l5.4785-28.8223,15.2373-1.501-7.2813,37.9786a41.6081,41.6081,0,0,0-1.2753,7.5058Q614.3936,397.0658,617.4707,397.2158Z" transform="translate(-99.0044 -184.1411)"></path><path d="M365.7231,368.9414a8.755,8.755,0,0,1,2.4019.3008c0.0249-.1.062-0.2871,0.1128-0.5635l0.1875-1.1631q0.1494-.75.3755-1.9892l0.6-2.9649,7.4682-.75-4.1655,21.7666a3.7726,3.7726,0,0,0-.0376.6006v0.6006a2.5387,2.5387,0,0,0,.4131,1.4443,1.2544,1.2544,0,0,0,1.0879.6192,4.6192,4.6192,0,0,1-3.04,2.5146,6.955,6.955,0,0,1-1.8955.2256,4.1992,4.1992,0,0,1-2.12-.582,2.6885,2.6885,0,0,1-1.3135-1.5576,4.18,4.18,0,0,1-1.8012,1.5576,6.7253,6.7253,0,0,1-2.9463.582,10.6645,10.6645,0,0,1-3.19-.4512,5.22,5.22,0,0,1-2.3452-1.4257q-1.6522-1.9131-1.6513-6.2676a12.4576,12.4576,0,0,1,3.3022-9.044A11.31,11.31,0,0,1,365.7231,368.9414Zm-0.2627,2.252a2.3334,2.3334,0,0,0-2.1391,1.5009,23.68,23.68,0,0,0-1.52,5.2168,34.8492,34.8492,0,0,0-.7691,7.0557q0,2.29,1.3511,2.2891a2.4573,2.4573,0,0,0,2.0454-1.2012,7.7716,7.7716,0,0,0,1.1821-3.19l2.0264-10.9961A3.24,3.24,0,0,0,365.46,371.1934Z" transform="translate(-99.0044 -184.1411)"></path><path d="M385.5386,389.583q-8.2566,0-8.2564-7.7685a13.5085,13.5085,0,0,1,3.04-9.0821,10.9731,10.9731,0,0,1,8.8193-3.791q4.0533,0,6.1172,1.877t2.0645,5.8164q0,6.0058-3.2276,9.4951A11.0137,11.0137,0,0,1,385.5386,389.583Zm0.9756-16.3252a14.4179,14.4179,0,0,0-.8067,2.5332q-0.3575,1.519-.8071,3.9219a29.232,29.232,0,0,0-.45,5.3662,3.5985,3.5985,0,0,0,.3188,1.6143,1.1992,1.1992,0,0,0,1.1822.6377,2.2669,2.2669,0,0,0,1.4077-.4131,3.3375,3.3375,0,0,0,.9565-1.3887,24.0228,24.0228,0,0,0,1.3511-4.9346,36.8091,36.8091,0,0,0,.6567-4.5976q0.0564-1.3872.0567-2.4209a4.2255,4.2255,0,0,0-.3-1.7071,1.1355,1.1355,0,0,0-1.1445-.6757,1.9867,1.9867,0,0,0-1.4078.5254A4.6952,4.6952,0,0,0,386.5142,373.2578Z" transform="translate(-99.0044 -184.1411)"></path></svg>
