<svg xmlns="http://www.w3.org/2000/svg" viewBox="0 0 292 56.6"><g fill-rule="evenodd"><path d="M95.7 46.4c-9 6.6-22 10.2-33.2 10.2A60 60 0 0 1 22.1 41c-.9-.7-.1-1.8.9-1.2a81.5 81.5 0 0 0 40.5 10.8 80.6 80.6 0 0 0 30.9-6.4c1.5-.6 2.7 1 1.3 2.1Z"/><path d="M99.4 42.2c-1.2-1.5-7.6-.7-10.5-.4-.9.1-1-.6-.2-1.2 5.1-3.6 13.5-2.6 14.5-1.3s-.2 9.6-5 13.6c-.8.6-1.5.3-1.2-.5 1.1-2.7 3.5-8.8 2.4-10.2ZM89.1 15.2v-3.5a.9.9 0 0 1 1-1h15.6a.9.9 0 0 1 .9 1v3a4.9 4.9 0 0 1-1.2 2.2l-8.1 11.6a17.4 17.4 0 0 1 9 1.9 1.6 1.6 0 0 1 .8 1.3v3.8c0 .5-.6 1-1.2.8a18 18 0 0 0-16.6 0c-.5.3-1-.3-1-.8V32a4.2 4.2 0 0 1 .5-2.5L98.2 16H90a.9.9 0 0 1-.9-.8ZM32 37H27a.9.9 0 0 1-.8-.8V11.7a.9.9 0 0 1 .9-.9h4.4a.9.9 0 0 1 1 .9v3.2a6.3 6.3 0 0 1 6.3-4.6c3 0 4.8 1.5 6.2 4.6A7 7 0 0 1 57 13c1.6 2 1.3 5 1.3 7.7V36a.9.9 0 0 1-1 1h-4.7a.9.9 0 0 1-.9-1v-13a31.3 31.3 0 0 0 0-4.5 2.5 2.5 0 0 0-2.9-2.1 3.2 3.2 0 0 0-2.8 2 14.8 14.8 0 0 0-.5 4.7v13a.9.9 0 0 1-1 .8H40a.9.9 0 0 1-.8-.9v-13c0-2.7.4-6.7-3-6.7s-3.3 4-3.3 6.8v13a.9.9 0 0 1-.9.8ZM120.1 10.3c7 0 11 6.1 11 13.8 0 7.5-4.3 13.4-11 13.4-7 0-10.7-6-10.7-13.6s3.8-13.6 10.7-13.6Zm0 5c-3.5 0-3.7 4.8-3.7 7.8s0 9.4 3.7 9.4 3.9-5.2 3.9-8.3a22.7 22.7 0 0 0-.7-6.5 3 3 0 0 0-3.1-2.4ZM140.2 37h-4.7a.9.9 0 0 1-.9-.9V11.6a.9.9 0 0 1 1-.8h4.3a1 1 0 0 1 .9.7v3.8c1.4-3.4 3.3-5 6.6-5a6.3 6.3 0 0 1 5.5 3c1.3 1.9 1.3 5.2 1.3 7.5v15.5a1 1 0 0 1-1 .7h-4.7a.9.9 0 0 1-.9-.7V23c0-2.7.4-6.6-3-6.6a3.1 3.1 0 0 0-2.7 2 10.9 10.9 0 0 0-.8 4.6V36a1 1 0 0 1-.9 1ZM76.6 25.3c0 1.9 0 3.4-.9 5a3.9 3.9 0 0 1-3.3 2.3c-1.8 0-2.9-1.4-2.9-3.5 0-4 3.7-4.8 7.1-4.8ZM81.4 37a1 1 0 0 1-1 0 11.6 11.6 0 0 1-2.8-3.1c-2.6 2.7-4.5 3.5-7.9 3.5-4 0-7.1-2.5-7.1-7.5a8.1 8.1 0 0 1 5-7.8c2.6-1.1 6.3-1.3 9-1.6v-.6a6.1 6.1 0 0 0-.6-3.5 3.2 3.2 0 0 0-2.6-1.2 3.6 3.6 0 0 0-3.9 2.8 1 1 0 0 1-.8.9l-4.6-.5a.8.8 0 0 1-.7-1c1-5.6 6-7.3 10.6-7.3 2.4 0 5.4.6 7.2 2.4 2.3 2.1 2.1 5 2.1 8.2V28c0 2.2 1 3.2 1.8 4.4a.9.9 0 0 1 0 1.3L81.4 37ZM14 25.3c0 1.9.1 3.4-.8 5a3.9 3.9 0 0 1-3.3 2.3c-1.9 0-3-1.4-3-3.5 0-4 3.7-4.8 7.2-4.8ZM19 37a1 1 0 0 1-1.2 0A11.6 11.6 0 0 1 15 34c-2.6 2.7-4.5 3.5-7.9 3.5-4 0-7.1-2.5-7.1-7.5a8.1 8.1 0 0 1 5-7.8c2.7-1.1 6.3-1.3 9-1.6v-.6a6.1 6.1 0 0 0-.5-3.5 3.2 3.2 0 0 0-2.7-1.2A3.6 3.6 0 0 0 7 18a1 1 0 0 1-.9.9l-4.6-.5a.8.8 0 0 1-.7-1c1-5.6 6.1-7.3 10.7-7.3 2.3 0 5.3.6 7.2 2.4 2.3 2.1 2 5 2 8.2V28c0 2.2 1 3.2 1.9 4.4a.9.9 0 0 1 0 1.3L18.8 37Z"/></g><path fill-rule="evenodd" d="M251.7 32.6a6.8 6.8 0 0 1-3.7 1 23.4 23.4 0 0 1-7.1-1 7.3 7.3 0 0 0-1.3-.3c-.5 0-.6.3-.6.8v1.5a2.1 2.1 0 0 0 .3 1 2.2 2.2 0 0 0 .8.6 19.3 19.3 0 0 0 7.9 1.4 11.3 11.3 0 0 0 7.2-2.1 6.8 6.8 0 0 0 2.7-5.8 6.6 6.6 0 0 0-1.3-4.2 10.2 10.2 0 0 0-4.3-2.8l-4-1.6a7.7 7.7 0 0 1-3.2-1.7 2.7 2.7 0 0 1-.9-2.2c0-2.2 1.6-3.3 5-3.3a17.5 17.5 0 0 1 5.4.9l1.2.2c.4 0 .7-.2.7-.8v-1.5a2.1 2.1 0 0 0-.3-1 1.3 1.3 0 0 0-.9-.6 20.6 20.6 0 0 0-6.5-1.1 11.2 11.2 0 0 0-6.8 2 6.5 6.5 0 0 0-2.6 5.4c0 3.3 1.9 5.8 5.7 7.2l4.3 1.6a8.5 8.5 0 0 1 3 1.6 2.5 2.5 0 0 1 .6 2 3.2 3.2 0 0 1-1.3 2.8ZM267.2.9a3.4 3.4 0 0 0-2.5-.9 3 3 0 0 0-2.3.9 3 3 0 0 0-.8 2.1 2.7 2.7 0 0 0 .8 2.2 3.5 3.5 0 0 0 4.7 0 3 3 0 0 0 .8-2.2 2.7 2.7 0 0 0-.7-2.1Zm-.9 9.8h-3c-.7 0-1 .3-1 1v24c0 .8.3 1 1 1h3c.8 0 1-.2 1-1v-24a1 1 0 0 0-1-1Zm13.6 5.8c1.3-1.5 3.4-2.2 6.3-2.2a13.4 13.4 0 0 1 4.2.6 2.2 2.2 0 0 0 .8.1c.5 0 .8-.2.8-1v-1.4a1.7 1.7 0 0 0-.3-1 3.2 3.2 0 0 0-.8-.6 25.5 25.5 0 0 0-5.5-.9c-4 0-7 1.2-9.4 3.6-2.1 2.4-3.3 5.8-3.3 10.2s1 7.6 3.2 10 5.2 3.4 9.2 3.4a14.3 14.3 0 0 0 5.8-1 1.3 1.3 0 0 0 .9-.6l.1-1v-1.4c0-.7-.2-1-.7-1a1.6 1.6 0 0 0-.7.1 18 18 0 0 1-4.6.7q-4.2 0-6.1-2.1c-1.3-1.5-1.9-3.8-1.9-6.8v-.8c.2-3.1.7-5.5 2-6.9Zm-78.4 20.3h3c.8 0 1-.3 1-1V17.6c0-2.5-.5-4.4-1.8-5.7a7.3 7.3 0 0 0-5.5-2 17 17 0 0 0-10.2 3.6c-1.1-2.5-3.3-3.6-6.5-3.6a17 17 0 0 0-9.5 3.3l-.3-1.6a.7.7 0 0 0-.5-.7 1 1 0 0 0-.7-.1h-2.3c-.7 0-1 .2-1 1v24c0 .7.3 1 1 1h3c.8 0 1-.3 1-1V16.4a14.7 14.7 0 0 1 7.6-2.4 3.4 3.4 0 0 1 3 1.3 6.5 6.5 0 0 1 1 3.8v16.6c0 .8.3 1 1 1h3c.8 0 1.1-.2 1.1-1V16.4a14.2 14.2 0 0 1 7.5-2.4 3.4 3.4 0 0 1 3 1.3 6.5 6.5 0 0 1 1 3.8v16.6c0 .8.4 1 1 1Zm27.5-25V31a13.6 13.6 0 0 1-7.4 2.4 4.3 4.3 0 0 1-3.5-1.3 6.2 6.2 0 0 1-1-4V11.7c0-.7-.3-1-1-1h-3c-.7 0-1 .3-1 1v18c0 2.4.5 4.5 1.8 5.8a7.7 7.7 0 0 0 5.7 2 16.7 16.7 0 0 0 9.8-3.5l.3 1.7a.7.7 0 0 0 .5.8l.8.1h2.2c.7 0 1-.3 1-1V11.7c0-.7-.3-1-1-1h-3c-1 0-1.2.4-1.2 1Z"/></svg>
