<svg xmlns="http://www.w3.org/2000/svg" viewBox="0 0 180.4 42.2"><path d="M162 27.8v-3.5c0-5.8 2.5-8.8 6.3-8.8s5.9 3 5.9 6h6.2v-.7c0-6-4.6-11-12.2-11-8.3 0-13 5.4-13 14.3v3.7c0 9 4.7 14.2 13 14.2 7.8 0 12.2-5 12.2-10.6v-.7h-6.2a5.6 5.6 0 0 1-5.9 5.9c-3.8 0-6.4-2.8-6.4-8.8Zm-19.8 13.7h6.6V10.6h-6.6v30.9Zm-23.8-22.7c0-2.4 2-3.8 5.2-3.8 3.6 0 5.3 2 5.4 4.2h6c0-5.5-4.7-9.3-11.4-9.3-6.6 0-11.7 3.3-11.7 9.5 0 5.3 3.6 7.6 7.8 8.6l4.6 1c3 .8 4.7 1.7 4.7 3.9 0 2.4-2 4-5.6 4-3.9 0-6-2-6.2-4.4h-6c.1 4.4 3 9.5 12 9.5 7.7 0 12.4-3.6 12.4-9.7 0-5.6-3.8-7.8-8.4-8.7l-4.7-1.1c-2.6-.6-4-1.9-4-3.7Zm-12.8 12.3V10.6h-6.5V30c0 4.2-2.4 6.4-6 6.4S87 34.2 87 30V10.6h-6.6v20.3c0 6.6 4.8 11 12.6 11 7.9.1 12.6-4.4 12.6-10.8ZM68.2 41.5H74V10.6h-6.6l-8.5 19h-.2l-8.6-19h-6.6v30.9h5.8v-20h.4l7.1 16h4l7.2-16h.2v20Zm-37-12.6a9 9 0 0 1-2.7-6.6 9 9 0 0 1 4.6-8c-1.7-2.6-4.2-3.9-7.7-4.2a9.2 9.2 0 0 0-4.6.9 19 19 0 0 1-3.4 1 15 15 0 0 1-3.1-.8 11.6 11.6 0 0 0-3.9-1 9.2 9.2 0 0 0-5 1.5 10.6 10.6 0 0 0-3.6 3.8A15 15 0 0 0 0 22.8a22.6 22.6 0 0 0 1.3 7.7 23.1 23.1 0 0 0 3 6.4 16.8 16.8 0 0 0 3 3.7c1.3 1 2.4 1.8 3.7 1.6a9.3 9.3 0 0 0 3-.9 8.7 8.7 0 0 1 3.7-.7 8 8 0 0 1 3.5.7 10 10 0 0 0 3.3 1 5.2 5.2 0 0 0 3.6-1.7 12 12 0 0 0 1.3-1.5A11.4 11.4 0 0 0 31 37c.4-.5.7-1.3 1-1.8l1.2-2.2.4-1c.2-.4.1-.6.3-.8a31.8 31.8 0 0 0-2.5-2.2Zm-8-22.3A9.3 9.3 0 0 0 25.4.7V0a7.4 7.4 0 0 0-3.3 1A8.9 8.9 0 0 0 17 8.7v.7a7 7 0 0 0 6.2-3Z"/></svg>
