<svg xmlns="http://www.w3.org/2000/svg" viewBox="0 0 273.67 79.59"><g data-name="Group 148" transform="translate(127.26 .59)"><path d="M21.37 15.03a2.39 2.39 0 0 0-1.3-2.23l-6.92-4.58a2.37 2.37 0 0 0-1.3-.35 2.63 2.63 0 0 0-2.58 2.7v9.04a2.71 2.71 0 0 0 2.59 2.7 2.68 2.68 0 0 0 1.29-.36l6.8-4.46a2.9 2.9 0 0 0 1.42-2.46Zm-2.47 0a.36.36 0 0 1-.12.23l-6.8 4.46c-.12 0-.24 0-.24-.11v-9.16a.12.12 0 0 1 .12-.12l6.92 4.46c.12.12.12.12.12.24Z" data-name="Path 166"/><path d="M28.3 19.25a1.3 1.3 0 0 0-1.3 1.3v4.8a1.68 1.68 0 0 1-.47.94 1.74 1.74 0 0 1-1.06.35h-4.46a1.3 1.3 0 0 0 0 2.59h4.58a5.63 5.63 0 0 0 2.47-.7 4 4 0 0 0 1.64-2.94v-5.05a1.5 1.5 0 0 0-1.4-1.29Z" data-name="Path 167"/><path d="M10.1 1.3A1.3 1.3 0 0 0 8.8 0H4.23a5.63 5.63 0 0 0-2.47.7A4 4 0 0 0 .12 3.64v4.93a1.3 1.3 0 0 0 2.58 0V3.76a1.67 1.67 0 0 1 .47-.94 1.74 1.74 0 0 1 1.06-.35h4.46a1.18 1.18 0 0 0 1.4-1.18Z" data-name="Path 168"/><path d="M25.83.35h-2.35a1.3 1.3 0 0 0-1.3 1.3 1.3 1.3 0 0 0 1.3 1.28h2.23a1.67 1.67 0 0 1 .94.47A1.96 1.96 0 0 1 27 4.46v4.46a1.3 1.3 0 0 0 2.58 0V4.34a5.63 5.63 0 0 0-.7-2.46A4.33 4.33 0 0 0 25.83.35Z" data-name="Path 169"/><path d="M6.8 26.53H3.88a1.68 1.68 0 0 1-.93-.47 1.96 1.96 0 0 1-.36-1.05v-4.47a1.3 1.3 0 1 0-2.58 0v4.58a5.63 5.63 0 0 0 .7 2.47 4 4 0 0 0 2.94 1.64H6.7a1.3 1.3 0 0 0 1.29-1.29 1.18 1.18 0 0 0-1.17-1.4Z" data-name="Path 170"/><circle cx="1.29" cy="1.29" r="1.29" data-name="Ellipse 14" transform="translate(9.5 26.53)"/><circle cx="1.29" cy="1.29" r="1.29" data-name="Ellipse 15" transform="translate(17.73 .59)"/></g><circle cx="1.29" cy="1.29" r="1.29" data-name="Ellipse 16" transform="translate(112 .47)"/><path d="M114.11 5.4a1.33 1.33 0 0 0-.94-.35h-.23a1.24 1.24 0 0 0-.94 1.17v2.35l-15.38 4.1a1.38 1.38 0 0 0-1.06 1.3 1.29 1.29 0 0 0 1.3 1.18h.11a.43.43 0 0 0 .35-.12L112 11.15v8.1a5.96 5.96 0 0 0-3.4-1.18 5.87 5.87 0 1 0 5.87 5.87V6.22a1.27 1.27 0 0 0-.36-.82ZM112 23.95v.12a3.35 3.35 0 1 1 0-.12Z" data-name="Path 171"/><path d="M110.12 2a1.14 1.14 0 0 0-1.17-.94h-.12L93.57 5.52a1.14 1.14 0 0 0-.94 1.17v18.08a5.96 5.96 0 0 0-3.4-1.17 5.87 5.87 0 0 0 0 11.74 5.96 5.96 0 0 0 5.87-5.87V7.63l14.2-4.22a1.15 1.15 0 0 0 .82-1.41ZM92.5 29.47a3.35 3.35 0 1 1 0-.12Z" data-name="Path 172"/><path d="M178.8 16.44a1.45 1.45 0 0 0-1.41 1.52 1.5 1.5 0 0 0 1.4 1.3h.12a1.36 1.36 0 0 0 1.3-1.53 1.41 1.41 0 0 0-1.41-1.3Zm0 2.1Z" data-name="Path 173"/><path d="M195.35 25.6c-.7-1.3-3.52-4.59-3.52-4.7a3.67 3.67 0 0 0-2.47-1.18h-.23a2.46 2.46 0 0 0-1.3.47 17.47 17.47 0 0 1-2 1.4 2.6 2.6 0 0 1-1.28.6.86.86 0 0 1-.7-.24l-.36-.35a14.38 14.38 0 0 1-1.17-1.41 1.24 1.24 0 0 0-1.06-.7 1.67 1.67 0 0 0-.7.23 1.02 1.02 0 0 0-.47.83 1.56 1.56 0 0 0 .36 1.17 6.27 6.27 0 0 0 1.52 1.76c.12.12.24.12.35.24a3.03 3.03 0 0 0 2.59.82 4.8 4.8 0 0 0 2.7-1.18l1.87-1.4a1.56 1.56 0 0 1 .6.35c.46.58 2.7 3.28 3.28 4.22.23.35-.12.82-.12.94a13.08 13.08 0 0 1-4.22 3.05h-.24c-2.35 0-9.5-5.75-13.15-10.1-3.17-3.87-5.4-11.15-5.52-13.03a3.85 3.85 0 0 1 .47-2.58 8.79 8.79 0 0 1 2.82-2.35.7.7 0 0 1 .47-.12h.12c.35 0 .58.24.7.24a23.48 23.48 0 0 1 3.17 4.58c0 .59-.35.94-1.76 2.46-2 2-.7 4.7-.24 5.52a1.05 1.05 0 0 0 .94.47 2.18 2.18 0 0 0 .82-.23 1.19 1.19 0 0 0 .35-1.53c-.23-.47-.82-1.64-.11-2.23 1.64-1.64 2.58-2.7 2.58-4.34 0-1.3-2.11-4.11-3.87-6.23A3.99 3.99 0 0 0 173.98 0h-.23a3.83 3.83 0 0 0-1.53.47 12.84 12.84 0 0 0-3.64 3.05c-.59.7-1.29 1.88-1.06 4.35.24 2.34 2.59 10.21 6.1 14.44 3.17 3.87 11.16 11.03 15.03 11.03h.24a2.76 2.76 0 0 0 .94-.23 15.43 15.43 0 0 0 5.16-3.76 3.6 3.6 0 0 0 .36-3.76Zm-6.8 7.62Z" data-name="Path 174"/><circle cx="1.88" cy="1.88" r="1.88" data-name="Ellipse 17" transform="translate(138.65 49.3)"/><path d="M148.63 52.83h4.8a1.42 1.42 0 0 0 1.07-.35 1.93 1.93 0 0 0 .82-1.76 1.74 1.74 0 0 0-1.88-1.76h-4.81v-4a2.14 2.14 0 0 0-.47-1.4 1.94 1.94 0 0 0-1.41-.59 1.98 1.98 0 0 0-1.41.59 2.41 2.41 0 0 0-.47 1.53v3.98h-.11a1.93 1.93 0 0 0-2 1.88 2.13 2.13 0 0 0 2 2h.11v24.3a2.23 2.23 0 0 0 .59 1.52 1.5 1.5 0 0 0 1.17.47 2.03 2.03 0 0 0 1.53-.58 2 2 0 0 0 .59-1.41V52.83Zm4.8-3.4Zm-.1 2.93Zm-8 25.36c0-.12 0-.35-.1-.35a.9.9 0 0 0 .1.35 1.01 1.01 0 0 0 .36.7 1.3 1.3 0 0 1-.35-.7Zm1.18.94Z" data-name="Path 175"/><path d="M28.76 65.98h-.12a2.17 2.17 0 0 0-2.1 1.76 11.55 11.55 0 0 1-2.83 4.58 11.35 11.35 0 0 1-8.21 3.4 11.62 11.62 0 0 1 0-23.25 11.35 11.35 0 0 1 8.21 3.4 11.04 11.04 0 0 1 2.94 5.05 2.3 2.3 0 0 0 1.88 1.41 1.49 1.49 0 0 0 .7-.12 1.87 1.87 0 0 0 1.05-.82 3.15 3.15 0 0 0 0-1.88 14.48 14.48 0 0 0-3.87-6.34A14.9 14.9 0 0 0 15.5 48.6a14.72 14.72 0 0 0-10.92 4.58A14.9 14.9 0 0 0 0 64.1a14.72 14.72 0 0 0 4.58 10.92A14.9 14.9 0 0 0 15.5 79.6a14.72 14.72 0 0 0 10.92-4.58 16.24 16.24 0 0 0 4.1-7.05c-.11-.82-.47-2-1.76-2Zm-.23-4.23ZM15.38 49.07ZM3.28 64.1a10.07 10.07 0 0 1 .24-2.7 10.07 10.07 0 0 0-.23 2.7 19.27 19.27 0 0 0 .23 2.7 10.51 10.51 0 0 1-.23-2.7Zm25.25 2.35Z" data-name="Path 176"/><path d="M97.67 52.83h4.82a1.42 1.42 0 0 0 1.05-.35 1.93 1.93 0 0 0 .83-1.76 1.74 1.74 0 0 0-1.88-1.76h-4.82v-4a2.14 2.14 0 0 0-.47-1.4 1.94 1.94 0 0 0-1.4-.6 1.98 1.98 0 0 0-1.41.6 2.41 2.41 0 0 0-.47 1.52v3.99h-4.7a1.93 1.93 0 0 0-2 1.88 2.13 2.13 0 0 0 2 2h4.7v24.3a2.23 2.23 0 0 0 .6 1.52 1.5 1.5 0 0 0 1.17.47 2.03 2.03 0 0 0 1.52-.58 2 2 0 0 0 .59-1.41V52.83Zm4.82-3.4Zm-.12 2.93Zm-6.7 26.3Z" data-name="Path 177"/><path d="M114.58 52.83h.82a1.76 1.76 0 0 0 1.53-1.76 2.02 2.02 0 0 0-1.18-1.88h-.11a3.92 3.92 0 0 0-1.76-.35 12.63 12.63 0 0 0-9.75 4.58 16.03 16.03 0 0 0-4.1 10.8v13.03a2.6 2.6 0 0 0 .46 1.52 1.98 1.98 0 0 0 2.82 0 2.41 2.41 0 0 0 .47-1.52V64.1a11.77 11.77 0 0 1 3.05-8.1 9.11 9.11 0 0 1 7.05-3.29 2.06 2.06 0 0 0 .7.12Zm.35-.47ZM101.9 78.77Z" data-name="Path 178"/><path d="M142.99 64.1a15.63 15.63 0 0 0-15.5-15.5 14.72 14.72 0 0 0-10.92 4.58A14.9 14.9 0 0 0 112 64.1a14.72 14.72 0 0 0 4.58 10.92 14.9 14.9 0 0 0 10.92 4.58 14.72 14.72 0 0 0 10.91-4.58l.7-.7v2.93a2.23 2.23 0 0 0 .6 1.53 1.87 1.87 0 0 0 1.4.47 1.51 1.51 0 0 0 1.3-.59 2.23 2.23 0 0 0 .58-1.52V64.1Zm-7.28 8.22a11.62 11.62 0 1 1 3.4-8.22 10.9 10.9 0 0 1-3.4 8.22Z" data-name="Path 179"/><path d="M181.61 64.1a15.63 15.63 0 0 0-15.49-15.5 14.72 14.72 0 0 0-10.92 4.58 14.9 14.9 0 0 0-4.58 10.92 14.72 14.72 0 0 0 4.58 10.92 14.9 14.9 0 0 0 10.92 4.58 14.72 14.72 0 0 0 10.92-4.58l.7-.7v2.93a2.23 2.23 0 0 0 .59 1.53 1.87 1.87 0 0 0 1.4.47 1.51 1.51 0 0 0 1.3-.59 2.23 2.23 0 0 0 .58-1.52Zm-9.04-13.62c-.47-.23-.82-.35-1.29-.58a4.34 4.34 0 0 1 1.3.58Zm-20.3 19.38c.23.47.35.82.58 1.29a13.77 13.77 0 0 0-.58-1.3Zm24.88 4.46-.35.35-.59.59c.24-.12.36-.36.59-.6l.35-.34a2.06 2.06 0 0 0 .47-.59c-.12.23-.35.35-.47.58Zm-2.7-2a11.62 11.62 0 1 1 3.4-8.22 11.35 11.35 0 0 1-3.4 8.22Zm3.88.7-.12.11c0 .12-.12.12-.24.24l.24-.24.12-.11Z" data-name="Path 180"/><path d="M218.12 52.83h4.82a1.42 1.42 0 0 0 1.05-.35 1.93 1.93 0 0 0 .83-1.76 1.74 1.74 0 0 0-1.88-1.76h-4.82v-4a2.14 2.14 0 0 0-.47-1.4 1.94 1.94 0 0 0-1.4-.59 1.98 1.98 0 0 0-1.41.59 2.41 2.41 0 0 0-.47 1.53v3.98h-4.7a1.93 1.93 0 0 0-2 1.88 2.13 2.13 0 0 0 2 2h4.7v24.3a2.23 2.23 0 0 0 .58 1.52 1.5 1.5 0 0 0 1.18.47 2.03 2.03 0 0 0 1.52-.58 2 2 0 0 0 .6-1.41V52.83Zm4.7-3.4Zm0 2.93Zm-.11-2.93Zm0 2.93Zm-7.99 25.13a.43.43 0 0 0 .12.35c-.12-.24-.12-.24-.12-.36Zm1.3 1.17Zm-.48-35.1a5.09 5.09 0 0 1 .6-.12 1.06 1.06 0 0 0-.6.12Z" data-name="Path 181"/><path d="M271.78 62.46a10.56 10.56 0 0 0-5.05-4 11.07 11.07 0 0 0-3.64-.82 4.06 4.06 0 0 1-2.35-.7 2.5 2.5 0 0 1-.82-1.88 2.34 2.34 0 0 1 .82-1.87 2.5 2.5 0 0 1 1.88-.83 2.75 2.75 0 0 1 2 .83l.59.58.58.59a1.7 1.7 0 0 0 2.35 0c1.06-.82.47-2 .35-2.46a14.66 14.66 0 0 0-1.05-1.41 6.28 6.28 0 0 0-4.7-1.88 6.47 6.47 0 0 0-4.58 11.03l.35.36a7.44 7.44 0 0 0 4.46 1.4 7.38 7.38 0 0 1 4.93 2.23 7.09 7.09 0 0 1 0 10.1 6.9 6.9 0 0 1-5.17 2.12 7.28 7.28 0 0 1-5.16-2.12 7.54 7.54 0 0 1-2.23-5.28 2.14 2.14 0 0 0-1.88-2.35h-.12c-1.53 0-1.88 1.53-1.88 2.35a11.26 11.26 0 0 0 3.29 7.98 11.05 11.05 0 0 0 15.61-.11 10.21 10.21 0 0 0 3.3-7.75 9.87 9.87 0 0 0-1.88-6.11Zm-4.93-8.22Zm-4.23-2.35Zm.35 9.04c-.59 0-1.06-.12-1.53-.12a7.22 7.22 0 0 1 1.53.12 1.49 1.49 0 0 1 .7.12 1.49 1.49 0 0 0-.7-.12Zm-9.5 5.75Zm-.94 5.17a7.18 7.18 0 0 0 .58 1.4 7.18 7.18 0 0 1-.59-1.4Zm2.46-2.11c0 .23.12.58.12.82 0-.24-.12-.6-.12-.83Zm2.23 4.46a6.97 6.97 0 0 1-1.52-2.12 7.96 7.96 0 0 0 1.52 2.12 2.06 2.06 0 0 0 .59.47c-.24-.12-.36-.36-.6-.47Zm10.92-.12-.82.82a5.42 5.42 0 0 0 .82-.82l.59-.59c-.24.24-.36.47-.6.59Zm3.17-11.39a2.56 2.56 0 0 0-.47-.59 1.17 1.17 0 0 1 .47.6c.24.23.35.58.59.81-.12-.23-.36-.47-.6-.82Zm1.88 4.46a7.22 7.22 0 0 1 .12 1.65 10 10 0 0 1-.36 2.7 10 10 0 0 0 .36-2.7 7.22 7.22 0 0 0-.13-1.65Z" data-name="Path 182"/><path d="M249 65.98h-.12a2.17 2.17 0 0 0-2.11 1.76 11.55 11.55 0 0 1-2.82 4.58 11.62 11.62 0 0 1-19.84-8.22 9.49 9.49 0 0 1 .12-1.88c2.11 0 11.74.12 18.43.12s6.8 0 6.93-.12a1.87 1.87 0 0 0 1.05-.82 3.15 3.15 0 0 0 0-1.88 14.48 14.48 0 0 0-3.87-6.34 14.9 14.9 0 0 0-10.91-4.58 14.72 14.72 0 0 0-10.92 4.58 14.9 14.9 0 0 0-4.58 10.92 14.72 14.72 0 0 0 4.57 10.92 14.9 14.9 0 0 0 10.93 4.58 14.72 14.72 0 0 0 10.91-4.58 16.24 16.24 0 0 0 4.11-7.05 2.11 2.11 0 0 0-1.88-2Zm-23.6-4.23Zm13.38 0Zm3.76 0Zm2.23 0Zm4 0Zm-4.82-5.87a10.7 10.7 0 0 1 2 2.7H225.4a14.58 14.58 0 0 1 2-2.7 11.35 11.35 0 0 1 8.22-3.4 11.62 11.62 0 0 1 8.33 3.4Zm-18.9-2.35a14.54 14.54 0 0 1 2.58-2.1 20.44 20.44 0 0 0-2.58 2.1 14.3 14.3 0 0 0-4 7.05 14.19 14.19 0 0 1 4-7.05Zm-.82 8.22Zm21.36 9.28a6.55 6.55 0 0 0 .6-.94 2.56 2.56 0 0 1-.6.94 10.22 10.22 0 0 1-1.05 1.29 3.67 3.67 0 0 0 1.05-1.3Zm-9.98 8.1Zm9.51-3.4a10.58 10.58 0 0 1 1.18-1.06 10.58 10.58 0 0 0-1.17 1.05Zm3.64-9.28Z" data-name="Path 183"/><path d="M46.61 48.6a14.72 14.72 0 0 0-10.92 4.58 14.9 14.9 0 0 0-4.58 10.92 14.72 14.72 0 0 0 4.58 10.92A14.9 14.9 0 0 0 46.6 79.6a14.72 14.72 0 0 0 10.92-4.58 15.3 15.3 0 0 0 0-21.84A14.9 14.9 0 0 0 46.6 48.6Zm8.22 23.72a11.62 11.62 0 1 1 3.4-8.22 11.35 11.35 0 0 1-3.4 8.22Z" data-name="Path 184"/><path d="M90.51 63.16a16.55 16.55 0 0 0-4.1-10.92 12.66 12.66 0 0 0-19.49 0 16.33 16.33 0 0 0-4.11 10.92V76.2a2.23 2.23 0 0 0 .59 1.53 1.77 1.77 0 0 0 1.29.47h.12a1.98 1.98 0 0 0 1.4-.59 2.32 2.32 0 0 0 .48-1.4V63.27a11.77 11.77 0 0 1 3.05-8.1 8.94 8.94 0 0 1 7.04-3.29 9.11 9.11 0 0 1 7.05 3.29 12.35 12.35 0 0 1 3.05 8.1v9.27a2.23 2.23 0 0 0 .59 1.53 1.6 1.6 0 0 0 1.29.47 1.94 1.94 0 0 0 1.4-.59 2.32 2.32 0 0 0 .48-1.4v-9.4ZM64.7 77.72Z" data-name="Path 185"/><path d="M210.73 63.16a16.55 16.55 0 0 0-4.1-10.92 12.66 12.66 0 0 0-19.5 0 16.33 16.33 0 0 0-4.1 10.92V76.2a2.23 2.23 0 0 0 .58 1.53 1.77 1.77 0 0 0 1.3.47h.1a1.98 1.98 0 0 0 1.42-.59 2.32 2.32 0 0 0 .47-1.4V63.27a11.77 11.77 0 0 1 3.05-8.1 8.94 8.94 0 0 1 7.04-3.29 9.11 9.11 0 0 1 7.05 3.29 12.35 12.35 0 0 1 3.05 8.1v9.27a2.23 2.23 0 0 0 .59 1.53 1.6 1.6 0 0 0 1.29.47 1.94 1.94 0 0 0 1.4-.59 2.32 2.32 0 0 0 .48-1.4v-9.4ZM184.9 77.72Zm1.65-16.9c.11-.36.11-.7.23-1.18-.12.47-.12.82-.23 1.17Zm.93-8.1c-.11.23-.35.34-.47.58a2.56 2.56 0 0 1 .47-.59c.6-.7 1.3-1.29 1.88-1.88-.59.59-1.29 1.18-1.88 1.88Zm18.79 0a9.38 9.38 0 0 0-1.53-1.53A8.33 8.33 0 0 0 203.1 50a14.24 14.24 0 0 1 1.64 1.18 9.38 9.38 0 0 1 1.53 1.52c.11.24.35.35.47.59a2.56 2.56 0 0 0-.47-.59Z" data-name="Path 186"/><circle cx="1.64" cy="1.64" r="1.64" data-name="Ellipse 18" transform="translate(87 75.13)"/><circle cx="1.64" cy="1.64" r="1.64" data-name="Ellipse 19" transform="translate(207.09 75.13)"/></svg>
