<svg xmlns="http://www.w3.org/2000/svg" xml:space="preserve" viewBox="0 0 209.3 72"><path fill="none" d="M-173.3-56.2H36v72h-209.3z"/><path d="M73.7 18.6v36.3a10 10 0 0 0-10.5 1.4 5.3 5.3 0 0 0-.9 7.3c.4.6 1 1 1.7 1.4a8.8 8.8 0 0 0 8.5.2 6.6 6.6 0 0 0 4.1-6.5V34.5c1 0 3.8 2.9 4.8 5.7.2-.2 8.4-11.6 13-16.4a44 44 0 0 1 14-10.6l1.3-.3v32.9c-3-.6-5.8-.6-8.4 1.2-2 1.4-3.3 3.2-2.9 5.7.3 2 1.8 3.7 3.8 4.2 2.7 1.1 5.7.8 8.2-.7a6.1 6.1 0 0 0 3.3-5.7L113.6.2c-11.4 1.4-31.8 24.3-31.8 28.6-1.3-3-5.3-8.4-8.1-10.2M188.2 36.4c.9-4 3.7-5.1 7.2-5.7l5.6-.8c1 0 1.7-.8 1.7-1.8a2 2 0 0 0-1.6-2.1 6 6 0 0 0-6.2 1.2l-1.2 1.1c-1 .8-2.4.8-3.4-.1a2.2 2.2 0 0 1-.4-3l.1-.2a9.7 9.7 0 0 1 3.5-2.8c3.4-1.4 7.2-1.5 10.7-.3 2.8.6 4.7 3.2 4.5 6v9.6c0 .9.1 1.8.4 2.7.4 1.4-.3 2.8-1.7 3.2l-.8.1c-1.7.1-2.7-.7-3.9-3.1-2.1 2.1-5 3.3-8 3.1a6.8 6.8 0 0 1-6.6-5.1c-1.5 3.3-4.1 4.5-7.3 5s-6.4-.2-9-2.2a9.3 9.3 0 0 1-3.3-5.9c-1.1-4.6.6-9.4 4.3-12.4 3.6-2.6 10.2-2.5 13.6.4.5.5 1 1 1.4 1.7.9 1.2.6 2.9-.6 3.8l-.2.1c-1.3.7-3 .3-3.8-1-1.7-2.2-4.1-2.8-6.2-1.4-.7.5-1.3 1.2-1.7 2a9 9 0 0 0-.2 7.2 4.4 4.4 0 0 0 7.5 1.3l.6-.7c1.6-1.8 3.1-1.9 5 .1m14.4-3a43.3 43.3 0 0 0-7 1.6c-.9.3-1.5 1.3-1.4 2.2 0 1 .7 1.8 1.7 2.1 1.9.7 4 .3 5.4-1.1 1.6-1.3 1.6-3.1 1.3-4.8M12.7 44.2c-4.1.3-11.3-1.7-12.6-7.1-.3-1.2.4-2.3 1.5-2.8 1-.6 2.3-.4 3.1.4a8 8 0 0 1 1.5 1.7c2.1 3.1 6.3 3.3 9 2.3a3.8 3.8 0 0 0 2.4-3.5c-.1-1.3-1-2.2-2.8-2.7-3-.8-6-1.5-8.9-2.4-5.8-1.9-7.8-8-4.2-12.6A9.6 9.6 0 0 1 7 14.2a16 16 0 0 1 12.3 1.4c1.6.7 2.8 2 3.5 3.6.5 1.1.2 2.4-.7 3.2-1.1.8-2.7.9-3.8 0-.4-.4-.9-.8-1.2-1.3a7.4 7.4 0 0 0-8.5-1.9 3 3 0 0 0-2 2.9c0 1.2.9 2.2 2 2.4l7.5 1.9c1.3.3 2.5.7 3.7 1.3 3.3 1.6 4.7 4.3 4.5 7.9a8 8 0 0 1-5.4 7.3 19 19 0 0 1-6.2 1.3" /><path d="M61.7 41.3c-1.7 1-3.5 1.8-5.3 2.5-2.6.9-5.6.3-7.6-1.6a5.9 5.9 0 0 1 2.1-9.9c2.4-.6 4.9-1.1 7.4-1.4l1.1-.1c1-.1 1.8-.8 1.9-1.8.2-1-.5-2-1.5-2.3a6.1 6.1 0 0 0-6.1 1l-1.3 1.2c-.9.9-2.4.9-3.3 0-1-.9-1.1-2.4-.2-3.4a7.3 7.3 0 0 1 4.4-2.9c3.4-1 6.9-.9 10.2.3 2.9 1 3.9 3.3 3.9 6.1v9.2c0 .9.1 1.7.3 2.5.4 1.7 0 2.7-1.3 3.2-1.4.6-3.1.1-4-1.1l-.7-1.5m-.4-7.4L56 35l-1.7.5a2.2 2.2 0 0 0-1.4 2.6 3.1 3.1 0 0 0 2.9 2.1c3.7.3 6-2.3 5.5-6.3M39.8 40.5a9 9 0 0 1-7.7 3.6 7 7 0 0 1-6.9-6.7v-13c0-1.7 1-2.6 2.8-2.6 1.9 0 3 .8 3 2.5v9.1l.1 2.2c.1 1.7.7 3 2.5 3.4 1.6.4 3.3-.1 4.4-1.4.9-1 1.4-2.4 1.3-3.7V25c0-2.1.9-3.1 2.8-3.2 2.1 0 3 .9 3.1 3.1V41c0 2.1-.9 3-2.7 3-1.8 0-2.5-.8-2.7-3v-.5M131.8 40.3l-1.2 1.2c-3.5 3.3-9.8 2.9-12.1-1.1a13 13 0 0 1-1.3-5.4 102.5 102.5 0 0 1 .2-11.3c.4-1.8 1.5-2.5 3.7-2.2 1.4.2 2.4 1.4 2.2 2.8v9.6l.1 1.5c.4 2.6 1.4 3.4 3.9 3.3 2.1 0 3.9-1.6 4.1-3.7l.1-10.3c0-2.2.9-3.2 3.1-3.2 1.9 0 3 .9 3 2.9v16.7c.1 1.5-1 2.7-2.5 2.8-1.5.1-2.5-.8-2.8-2.4l-.5-1.2M148.5 21.3a12 12 0 0 1 6.5 1.3c.9.5 1.7 1.2 2.3 2 .7 1.2.4 2.7-.8 3.4-.8.5-1.9.5-2.7-.1l-1-.7a5.6 5.6 0 0 0-5.9-1.2c-.6.2-1 .7-1.1 1.3a2 2 0 0 0 1 1.5c1.7.6 3.5.9 5.2 1.4 1.2.3 2.3.8 3.4 1.3 4.3 2 4.1 7.3 1 9.8a11.2 11.2 0 0 1-8.7 2.2c-2.2-.1-4.4-.9-6.2-2.2a5.8 5.8 0 0 1-1.8-2.3c-.5-1.2 0-2.6 1.2-3.2.8-.3 1.7-.2 2.4.3l1.8 1.6a5.6 5.6 0 0 0 5.9 1.1c.9-.3 1.5-.9 1.3-1.8-.2-.7-.8-1.2-1.4-1.5-2.3-.7-4.7-1.2-7-2-4.1-1.3-5.8-5.6-3.6-8.9 1.5-2.3 3.8-3.1 6.4-3.4l1.8.1M167.1 32.4v8c0 2.1-1.1 3.2-3 3.2-1.6.2-2.9-1-3.1-2.5V24.4c0-2.3 1-3.2 3.3-3.1 1.9 0 2.8 1.1 2.8 3.2v7.9M88.6 72c-2.3 0-4.6-.6-6.6-1.7-1.4-.8-1.8-1.9-1.2-3.1a2.3 2.3 0 0 1 2.9-1.2l.4.3c3.9 2.1 8.9.9 11.3-2.8 1.2-1.8 3-1.8 4.1-.2.6.9.5 2-.2 2.8A13.1 13.1 0 0 1 88.6 72M124.1 17.5c.3-1.3 4.1-4 6.4-5.3.9-.5 1.7.2 2.3 1 .6.7.6 1.7-.1 2.3-2 1.5-4.1 2.9-6.2 4.2-.9.5-2.9-.6-2.4-2.2M164.1 13.1c1.7 0 3.1 1.4 3.1 3.1 0 1.7-1.4 3.2-3.1 3.2a3.4 3.4 0 0 1-3.2-3.2 3.2 3.2 0 0 1 3.2-3.1" /></svg>
