<svg xmlns="http://www.w3.org/2000/svg" viewBox="0 0 172.4 37"><path d="M57.9 14V.6c0-.2-.1-.5.2-.6h5.3c.5 0 .6.1.6.6v35.3c0 .2 0 .4-.2.6h-5c-.6 0-.7-.3-.7-.9v-2.5l-.2.3a8.1 8.1 0 0 1-4.4 3.2 11 11 0 0 1-3.9.3 9.1 9.1 0 0 1-6-3.1 12.2 12.2 0 0 1-2.2-3.2 14.2 14.2 0 0 1-.6-1.9.3.3 0 0 0 0-.2c-.3-.8-.3-1.5-.5-2.2a5 5 0 0 1 0-1 15.3 15.3 0 0 1 .3-5 12.6 12.6 0 0 1 2.5-5.3c.4-.4.6-1 1.1-1.2l.7-.6a9.7 9.7 0 0 1 9-1.4 7 7 0 0 1 2.3 1.4l.6.6 1.1 1.5V14Zm.2 10.2a8.1 8.1 0 0 0 0-1.6l-.3-1C56.4 16.8 51 15.4 48 19a8.3 8.3 0 0 0-1.6 6.5c.4 4.4 4.5 7 8.2 5.2 2.5-1.2 3.5-3.6 3.5-6.5ZM95.9 29.9a4.8 4.8 0 0 0 2.6 1.2 5.2 5.2 0 0 0 3.2-.2 4 4 0 0 0 2.6-2.4l.5-1.1c0-.3.2-.4.5-.2l4.5 1.9c.3.1.2.3.1.6a12.5 12.5 0 0 1-2.5 4.1 9.6 9.6 0 0 1-4.7 2.8 15.1 15.1 0 0 1-4.7.3c-.8 0-1.5-.4-2.3-.5l-.2-.1a10.3 10.3 0 0 1-3.9-2.3 14.7 14.7 0 0 1-2.4-3.3l-.5-1.4-.2-.5a.3.3 0 0 0 0-.2 18.7 18.7 0 0 1-.7-5 13.8 13.8 0 0 1 1-5.3 14.4 14.4 0 0 1 2.7-4 10.2 10.2 0 0 1 4.5-2.7 10.4 10.4 0 0 1 4.3-.3 14.3 14.3 0 0 1 3.8 1.1 7 7 0 0 1 1 .6.7.7 0 0 0 .4.3l1.5 1.5.2.3a20.2 20.2 0 0 1 1.2 2.2 14.8 14.8 0 0 1 .8 3 15 15 0 0 1 0 4.5c-.1.4-.3.6-.7.6h-14c-.7 0-.7 0-.6.7a5.2 5.2 0 0 0 1.7 3.5.5.5 0 0 0 .3.3Zm2.7-9h4.3c.5 0 .6-.2.6-.7a3.8 3.8 0 0 0-1.7-2.8 5.2 5.2 0 0 0-7.8 2.9c-.1.5-.1.7.4.6h4.2ZM145.3 30.6c.5-.4 1.2-.6 1.5-1.2a1.4 1.4 0 0 0 .4-.6 3.1 3.1 0 0 0 .5-1.3c0-.3.2-.5.5-.3l2.4 1a2.9 2.9 0 0 0 1.1.3c.1.3.4.3.6.4.8.4.8.4.4 1.3a10.3 10.3 0 0 1-5.3 5.8 12.8 12.8 0 0 1-6.4.9 10.3 10.3 0 0 1-7.9-4.7 14.9 14.9 0 0 1-2-10.7 11.7 11.7 0 0 1 1.5-4.8 11 11 0 0 1 1.8-2.3l.6-.6.4-.3.4-.3a10.8 10.8 0 0 1 3-1.5 11.5 11.5 0 0 1 7.1.2 8.8 8.8 0 0 1 4.7 3.8 12.3 12.3 0 0 1 1.7 6.8 20 20 0 0 1-.2 2.4c0 .4-.2.5-.6.5h-14c-.7 0-.7 0-.6.8a5.6 5.6 0 0 0 5 5 6.3 6.3 0 0 0 3-.3.8.8 0 0 0 .4-.3Zm-8.4-9.7h9.2c.4 0 .4-.2.3-.4a3.7 3.7 0 0 0-1.9-3.3 5.1 5.1 0 0 0-3.9-.4 5 5 0 0 0-3.7 4.1ZM85 28a1 1 0 0 0 .5.2.2.2 0 0 0 .3.1 3.3 3.3 0 0 0 .9.4.5.5 0 0 0 .3.2 1.7 1.7 0 0 0 .4.2c.4 0 .4.3.3.6l-.5 1.2-.5 1-.4.6L85 34l-.3.2c-4.3 3.5-8.9 3.5-13.6 1.1a10 10 0 0 1-3.3-3 13 13 0 0 1-2-4.8 16.5 16.5 0 0 1-.4-3.7 13.5 13.5 0 0 1 1-5.3 10.2 10.2 0 0 1 3.6-5 8 8 0 0 1 1.4-1l.3-.1a8.7 8.7 0 0 1 3.8-1.2c3 0 5.8.4 8.2 2.7l.2.1.4.4a10.8 10.8 0 0 1 2.2 4.3A14.5 14.5 0 0 1 87 24l-.1.9a.5.5 0 0 0 0 .4H72.1c-.6 0-.7.2-.6.8l.2.8a1 1 0 0 0 .2.6 1.2 1.2 0 0 0 .2.6.6.6 0 0 0 .2.3l.1.2a3.8 3.8 0 0 0 1.5 1.5 1.3 1.3 0 0 0 .6.4 1.8 1.8 0 0 0 .8.3 5.9 5.9 0 0 0 3.7.2.2.2 0 0 0 .2 0 4.7 4.7 0 0 0 3.3-3.8V27l1.9.8a.9.9 0 0 0 .4.1Zm-8.6-7h4.3c.4 0 .5-.2.5-.6a3.7 3.7 0 0 0-1.7-3 5 5 0 0 0-3.1-.8 5.1 5.1 0 0 0-4.7 3.8c-.1.5 0 .5.4.5h4.3ZM122 17.5h-10.7c-.6 0-.6-.2-.6-.7v-4.5c0-.5.1-.6.5-.6h18.5c.5 0 .6.2.6.7v4.3a1.2 1.2 0 0 1-.4.9L118.3 30l-.3.3c.2.2.3.1.5.1H130c.5 0 .6.2.6.7v4.7a1.3 1.3 0 0 1-.1.6h-19.7c-.2 0-.5.1-.5-.3v-4.9a1.2 1.2 0 0 1 .5-1 .3.3 0 0 0 .2-.2l.2-.3.6-.6a3 3 0 0 1 .7-.7l1-1.2a28 28 0 0 0 3.4-3.8c0-.2.3 0 .4-.3a1 1 0 0 0 .4-.4l1.2-1.3c1.1-1.3 2.4-2.4 3.5-3.8 0-.3-.2 0-.3 0ZM165 11.3a8.4 8.4 0 0 1 3.2.3c2.5.9 3.7 2.8 4.1 5.5a14.7 14.7 0 0 1 0 3.4c0 .4-.1.5-.4.5h-5c-.3 0-.4-.1-.4-.4a4.3 4.3 0 0 0-.7-3 3 3 0 0 0-4.1-.1 4.3 4.3 0 0 0-1 3v15.3c0 .5-.1.7-.6.7h-5c-.4 0-.5-.2-.5-.6V12.3c0-.4.1-.6.5-.6h5c.5 0 .6.1.6.6v1.9c0 .1-.1.3 0 .4l.2-.2a6.5 6.5 0 0 1 2.4-2.6ZM0 31.6h7.4v4.7H0zM8.9 31.6h7.4v4.7H8.9zM17.8 31.6h7.4v4.7h-7.4zM26.7 31.6h7.4v4.7h-7.4zM8.9 25h7.4v4.7H8.9zM17.8 25h7.4v4.7h-7.4zM26.7 25h7.4v4.7h-7.4zM8.9 18.4h7.4V23H8.9zM26.7 18.4h7.4V23h-7.4zM26.7 11.8h7.4v4.7h-7.4z"/></svg>
