<svg xmlns="http://www.w3.org/2000/svg" viewBox="0 0 203.7 61.1"><path d="M30.5 0a30.5 30.5 0 1 0 30.6 30.5A30.6 30.6 0 0 0 30.5 0Zm14 44a2 2 0 0 1-2.4.6l-.5-.2a29.6 29.6 0 0 0-10.4-3.8 36.1 36.1 0 0 0-7-.3 49.5 49.5 0 0 0-8.8 1.1 3 3 0 0 1-.9.1 1.9 1.9 0 0 1-1.8-1.5 1.9 1.9 0 0 1 1.1-2.1c.2 0 .4 0 .5-.2a50.4 50.4 0 0 1 7.2-1.1l4-.3a38 38 0 0 1 11.9 1.9 30.7 30.7 0 0 1 6 2.7.9.9 0 0 1 .4.4 2 2 0 0 1 .7 2.6Zm3.8-8.4a2.4 2.4 0 0 1-3.3.8 21.1 21.1 0 0 0-2-1 38.3 38.3 0 0 0-9.7-3.3 40.1 40.1 0 0 0-8-.7 36.1 36.1 0 0 0-10.6 1.5 2.2 2.2 0 0 1-1.7-.1 2.4 2.4 0 0 1-1.5-2.3 2.4 2.4 0 0 1 1.6-2.2l3-.8a53 53 0 0 1 7.5-1 49 49 0 0 1 16 2.2 38.3 38.3 0 0 1 7.6 3.4.7.7 0 0 0 .4.1 2.6 2.6 0 0 1 .7 3.4Zm4.6-11.2a2.8 2.8 0 0 1-4.3 2.5 34.4 34.4 0 0 0-4-2 42 42 0 0 0-8.7-2.3 49.2 49.2 0 0 0-6.2-.7 54 54 0 0 0-6.6 0 53.2 53.2 0 0 0-7.4.9c-1 .1-1.8.4-2.7.7a2.5 2.5 0 0 1-1.6 0 2.8 2.8 0 0 1-2-2.7 2.9 2.9 0 0 1 1.8-2.7c1-.3 1.8-.6 2.7-.7a57.5 57.5 0 0 1 6.6-1.1 64.7 64.7 0 0 1 7.2-.2 59.7 59.7 0 0 1 17.2 3 43.4 43.4 0 0 1 6.5 2.9 3 3 0 0 1 1.5 1.8ZM83.6 27.9c-4.8-1.2-6-1.9-6-3.7V24c0-1.3 1.3-2.5 3.6-2.5s4.7 1 7.2 2.7l3.2-4.6a15.7 15.7 0 0 0-10.3-3.5c-5.7 0-9.7 3.4-9.7 8.4v.1c0 5.6 3.6 7.2 9.2 8.6 4.6 1.2 5.5 2 5.5 3.5v.1c0 1.7-1.5 2.7-4 2.7-3.1 0-5.7-1.3-8.2-3.4l-3.5 4.4A17.3 17.3 0 0 0 82.3 45c5.9 0 10-3.1 10-8.7v-.1c0-4.9-3.1-6.9-8.7-8.4ZM148.6 17.7H143v5.6h-2.7v4.9h2.7v10.3c0 5 2.5 6.5 6.2 6.5a8.7 8.7 0 0 0 4.8-1.3V39a6.7 6.7 0 0 1-3 1c-1.4 0-2.5-.5-2.5-2.3v-9.5h5.5v-4.8h-5.5ZM156.3 23.5h5.4v21.2h-5.4zM185.7 37.9 180 23.5H172v-1.1c0-1.6 1.2-2.3 2.6-2.3a6.9 6.9 0 0 1 2.8.5v-4.8a13.7 13.7 0 0 0-4.4-.6 6 6 0 0 0-4.7 1.7 7 7 0 0 0-1.7 5.2v1.3h-2.7v4.8h2.5v16.3h5.7V28.2h4.4l6.6 16.2a2.7 2.7 0 0 1-2.5 2 7 7 0 0 1-2.8-1l-2 4.2a11.8 11.8 0 0 0 5.8 1.4c3.8 0 5.6-3.3 6.3-4.9l8.8-22.6H191Z"/><circle cx="3.4" cy="3.4" transform="translate(155.6 14)" r="3.4"/><path d="M201.9 26a1 1 0 0 0-.3-.8 1.4 1.4 0 0 0-1-.3h-1.7v3.5h.8v-1.1h.6l.8 1.1h.9l-1-1.2a1.4 1.4 0 0 0 .9-1.2Zm-.8 0c0 .3-.2.6-.6.6h-.8v-1.1h.8c.3 0 .6.2.6.5Z"/><path d="M200.3 23.4a3.4 3.4 0 0 0-3.4 3.3 3.4 3.4 0 1 0 6.8 0 3.4 3.4 0 0 0-3.4-3.3Zm3 3.3a3 3 0 1 1-6 0 3 3 0 1 1 6 0ZM129 23a11 11 0 0 0-11.3 11 11.2 11.2 0 0 0 22.5 0A11 11 0 0 0 129 23Zm0 17.5a6.4 6.4 0 1 1 5.9-6.4 6.2 6.2 0 0 1-6 6.4ZM106.6 23c-3.4 0-5.6 1.3-7 3.2v-2.8H94v27.5h5.5v-9a8.1 8.1 0 0 0 6.6 3.2c5 0 9.9-4 9.9-11V34c0-7-4.8-11-9.5-11Zm-1.5 17.3c-3 0-5.6-2.8-5.6-6.3s2.5-6.3 5.6-6.3 5.6 2.9 5.6 6.3-2.6 6.3-5.6 6.3Z"/></svg>
