<svg xmlns="http://www.w3.org/2000/svg" viewBox="0 0 173.5 42.7"><path d="M59.7 6.7a7.6 7.6 0 0 0-5.4-5.4C49.5 0 30.5 0 30.5 0s-19 0-23.8 1.3a7.6 7.6 0 0 0-5.4 5.4C0 11.4 0 21.3 0 21.3s0 10 1.3 14.7a7.6 7.6 0 0 0 5.4 5.4c4.7 1.3 23.8 1.3 23.8 1.3s19 0 23.8-1.3a7.6 7.6 0 0 0 5.4-5.4c1.2-4.8 1.2-14.7 1.2-14.7s0-9.9-1.2-14.6ZM24.4 30.5V12.2l15.8 9.1Z"/><g transform="translate(73.6 .5)"><path d="M0 41V0h9.3l4.5 22.7a26 26 0 0 1 .4 2.9l.2 3.2a25.6 25.6 0 0 1 .1-2.9l.5-3.2L19.3 0h9.4v41h-6.5V15l.2-2.9.3-4.1-.4 2.2-.6 3.6L16 40.9h-3.5L7.1 13.7l-.7-3.6L6 8l.3 3.9.2 3.2v25.8ZM50.3 10.7V41H44v-3.3a13.3 13.3 0 0 1-3.6 2.8 7.8 7.8 0 0 1-3.6 1 4 4 0 0 1-3.2-1.3 6.3 6.3 0 0 1-1.1-4V10.6h6.2V34a2.5 2.5 0 0 0 .4 1.6 1.5 1.5 0 0 0 1.2.5 3.6 3.6 0 0 0 1.8-.7 8.3 8.3 0 0 0 1.9-1.6v-23ZM51.6 32.8l6-1.2a7.8 7.8 0 0 0 1.4 3.7 3.4 3.4 0 0 0 2.7 1.2 3 3 0 0 0 2.1-.7 2.5 2.5 0 0 0 .8-2q0-2.3-6.3-6.7a1 1 0 0 0-.2 0 16 16 0 0 1-4.5-4.3 8.3 8.3 0 0 1-1.3-4.6 7.6 7.6 0 0 1 2.5-6 9.5 9.5 0 0 1 6.7-2.2 9 9 0 0 1 6.2 2 8.2 8.2 0 0 1 2.6 5.8l-5.8 1.3a6 6 0 0 0-1.2-2.9 2.7 2.7 0 0 0-2.2-1 2.5 2.5 0 0 0-2.6 2.7q0 2 4.4 5.2l1.8 1.3a20.2 20.2 0 0 1 4.7 4.6 8.1 8.1 0 0 1 1.3 4.5 7.6 7.6 0 0 1-2.5 6 9.8 9.8 0 0 1-6.7 2.3 9.5 9.5 0 0 1-6.7-2.4 10.6 10.6 0 0 1-3.2-6.6ZM72.6 41V10.6h6.2V41ZM81.6 32.4V19.1a8.8 8.8 0 0 1 2.6-6.7A9.3 9.3 0 0 1 91 10a8.2 8.2 0 0 1 8.8 8.9v2.3h-6.3v-2.4a4.5 4.5 0 0 0-.7-2.7 2.4 2.4 0 0 0-2-.8 2.5 2.5 0 0 0-2.1.8 4.5 4.5 0 0 0-.7 2.7v13.5a6.4 6.4 0 0 0 .6 3.3 2.3 2.3 0 0 0 2.1.9 2.6 2.6 0 0 0 2.2-.8q.6-.8.6-3.4v-2.4h6.3v2.5q0 4.7-2.3 7t-7 2.4a8.6 8.6 0 0 1-6.5-2.5 9.5 9.5 0 0 1-2.4-6.9Z"/><circle cx="3.9" cy="3.9" r="3.9" transform="translate(71.8 .6)"/></g></svg>
