<svg xmlns="http://www.w3.org/2000/svg" viewBox="0 0 188.5 38.9"><path d="M0 9.8 9.8 0l9.7 9.8-9.7 9.7zM19.6 9.8 29.3 0l9.8 9.8-9.8 9.7z"/><path d="m19.5 29.2 9.8-9.8 9.7 9.8-9.7 9.7zM39 9.8 48.7 0l9.8 9.8-9.8 9.8z"/><path d="M82.6 13.2v17H78v-17h-6.5V9H89v4.3ZM99 30.2V8.9h4.7v21.3ZM123.3 30.2H115V8.9h8.3c6.7 0 11.2 4.5 11.2 10.6 0 6-4.5 10.7-11.2 10.7Zm6.4-10.6a6 6 0 0 0-6.4-6.4h-3.6v12.9h3.6a6.2 6.2 0 0 0 6.4-6.5ZM159 30.2l-1.9-4.8h-9l-1.9 4.8h-4.8l9.1-21.4h4.3l9 21.4Zm-6.3-15.8-2.8 7h5.6ZM173.3 30.2V8.9h4.6v17h10.6V30h-15.2Z"/></svg>
