<svg xmlns="http://www.w3.org/2000/svg" viewBox="0 0 28.912 28.918"><path d="M28.838,8.5a10.571,10.571,0,0,0-.672-3.508A7.413,7.413,0,0,0,23.935.763,10.6,10.6,0,0,0,20.427.091C18.879.017,18.388,0,14.462,0S10.044.017,8.5.085A10.576,10.576,0,0,0,4.994.757,7.055,7.055,0,0,0,2.429,2.429,7.114,7.114,0,0,0,.763,4.989,10.608,10.608,0,0,0,.091,8.5C.017,10.044,0,10.536,0,14.462s.017,4.418.085,5.96A10.562,10.562,0,0,0,.757,23.93a7.406,7.406,0,0,0,4.231,4.231,10.593,10.593,0,0,0,3.508.672c1.542.068,2.034.085,5.96.085s4.417-.017,5.96-.085a10.563,10.563,0,0,0,3.508-.672,7.4,7.4,0,0,0,4.232-4.231,10.609,10.609,0,0,0,.672-3.508c.068-1.542.085-2.034.085-5.96s-.006-4.417-.073-5.96m-2.6,11.807a7.922,7.922,0,0,1-.5,2.683,4.8,4.8,0,0,1-2.745,2.745,7.954,7.954,0,0,1-2.683.5c-1.525.068-1.983.085-5.841.085s-4.322-.017-5.841-.085a7.922,7.922,0,0,1-2.683-.5,4.45,4.45,0,0,1-1.661-1.079A4.5,4.5,0,0,1,3.2,23a7.954,7.954,0,0,1-.5-2.683c-.068-1.525-.085-1.983-.085-5.841s.017-4.321.085-5.841a7.922,7.922,0,0,1,.5-2.683A4.4,4.4,0,0,1,4.288,4.288a4.489,4.489,0,0,1,1.66-1.079,7.957,7.957,0,0,1,2.683-.5c1.525-.068,1.983-.085,5.841-.085s4.322.017,5.841.085a7.922,7.922,0,0,1,2.683.5,4.45,4.45,0,0,1,1.661,1.079,4.5,4.5,0,0,1,1.079,1.661,7.954,7.954,0,0,1,.5,2.683c.068,1.525.085,1.983.085,5.841s-.017,4.311-.085,5.836" transform="translate(0 0)" /><path d="M21.217,13.788a7.429,7.429,0,1,0,7.429,7.429,7.431,7.431,0,0,0-7.429-7.429m0,12.247a4.819,4.819,0,1,1,4.819-4.819,4.82,4.82,0,0,1-4.819,4.819" transform="translate(-6.755 -6.755)" /><path d="M41.826,9.813a1.734,1.734,0,1,0,1.734,1.734,1.734,1.734,0,0,0-1.734-1.734" transform="translate(-19.642 -4.808)" /></svg>
