<svg xmlns="http://www.w3.org/2000/svg" viewBox="0 0 267.8 59.8"><path d="M83.6 9.3a10.7 10.7 0 0 0-7.5-7.5C69.4 0 42.7 0 42.7 0S16 0 9.3 1.8a10.7 10.7 0 0 0-7.5 7.5C0 16 0 30 0 30s0 13.9 1.8 20.5A10.7 10.7 0 0 0 9.3 58c6.7 1.8 33.4 1.8 33.4 1.8s26.7 0 33.4-1.8a10.7 10.7 0 0 0 7.5-7.6c1.8-6.6 1.8-20.5 1.8-20.5s0-13.9-1.8-20.6ZM34.2 42.7V17.1l22.2 12.8Z"/><path d="M124 54.4a9.3 9.3 0 0 1-3.6-5.3 34.7 34.7 0 0 1-1.1-9.6V34a31.5 31.5 0 0 1 1.2-9.7 9.7 9.7 0 0 1 3.8-5.3 12.4 12.4 0 0 1 6.8-1.7 11.6 11.6 0 0 1 6.7 1.7 9.8 9.8 0 0 1 3.7 5.4 32.8 32.8 0 0 1 1.1 9.6v5.5a33.3 33.3 0 0 1-1.1 9.6 9.4 9.4 0 0 1-3.7 5.3 15 15 0 0 1-13.8 0Zm9.4-5.9a18.3 18.3 0 0 0 .7-6V31a18 18 0 0 0-.7-6 2.5 2.5 0 0 0-2.4-1.8 2.5 2.5 0 0 0-2.5 1.9 18 18 0 0 0-.7 5.9v11.6a19 19 0 0 0 .7 6 2.5 2.5 0 0 0 2.5 1.9 2.5 2.5 0 0 0 2.4-1.9Z"/><path d="M253.7 39.6v1.9a49.8 49.8 0 0 0 .2 5.4 5.1 5.1 0 0 0 .9 2.6 2.5 2.5 0 0 0 2 .8 2.6 2.6 0 0 0 2.6-1.4 12.7 12.7 0 0 0 .8-5l7.3.5a11.5 11.5 0 0 1 0 1.3q0 5.2-2.8 7.8t-8 2.6q-6.3 0-8.8-4t-2.5-12v-6.6q0-8.4 2.6-12.3t9-3.9a11.7 11.7 0 0 1 6.6 1.6 8.5 8.5 0 0 1 3.2 5 35.8 35.8 0 0 1 1 9.3v6.4Zm1-15.8a5.2 5.2 0 0 0-.8 2.6 50.6 50.6 0 0 0-.2 5.5v2.7h6.1v-2.7a45.5 45.5 0 0 0-.2-5.5 5.2 5.2 0 0 0-.9-2.6 2.4 2.4 0 0 0-2-.8 2.4 2.4 0 0 0-2 .8Z"/><path d="M103.4 38.9 93.8 4.2h8.4l3.4 15.7q1.3 5.8 1.9 10h.2q.4-3 2-9.9L113 4.3h8.4l-9.8 34.6v16.6h-8.3Z"/><path d="M169.8 18v37.5h-6.6l-.7-4.6h-.2q-2.7 5.2-8 5.2a6.3 6.3 0 0 1-5.5-2.4Q147 51.2 147 46V18h8.4v27.5a8.4 8.4 0 0 0 .6 3.6 1.9 1.9 0 0 0 1.8 1 3.7 3.7 0 0 0 2.1-.6 4.2 4.2 0 0 0 1.5-1.7V18Z"/><path d="M213 18v37.5h-6.5l-.8-4.6h-.2q-2.6 5.2-8 5.2a6.3 6.3 0 0 1-5.5-2.4q-1.8-2.5-1.8-7.7V18h8.4v27.5a8.4 8.4 0 0 0 .6 3.6 1.9 1.9 0 0 0 1.8 1 3.7 3.7 0 0 0 2.1-.6 4.2 4.2 0 0 0 1.5-1.7V18Z"/><path d="M192.7 11h-8.3v44.5H176V11h-8.3V4.2h25Z"/><path d="M241 24a9.6 9.6 0 0 0-2.5-5.1 6.6 6.6 0 0 0-4.7-1.6 7.8 7.8 0 0 0-4.4 1.3 9 9 0 0 0-3 3.5h-.1V2.4H218v53h7l.9-3.5h.1a7.1 7.1 0 0 0 3 3 8.7 8.7 0 0 0 4.3 1.1 6.6 6.6 0 0 0 6.3-3.9q2-4 2-12.3v-6a49.2 49.2 0 0 0-.7-9.8Zm-7.8 15.3a47.4 47.4 0 0 1-.3 6.4 7 7 0 0 1-1.1 3.3 2.6 2.6 0 0 1-2.2 1 3.9 3.9 0 0 1-1.9-.5 3.7 3.7 0 0 1-1.4-1.5V26.8a5.3 5.3 0 0 1 1.4-2.5 3.2 3.2 0 0 1 2.3-1 2.3 2.3 0 0 1 2 1 7.8 7.8 0 0 1 1 3.4 63.3 63.3 0 0 1 .2 6.8Z"/></svg>
