<svg xmlns="http://www.w3.org/2000/svg" viewBox="0 0 24.948 28.423"><path d="M-50.507.93a7.184,7.184,0,0,0,4.769,6.7,7.837,7.837,0,0,0,1.177.3c.4.073.809.1,1.239.15V12.67a11.8,11.8,0,0,1-7.184-2.431V10.6q0,4.909.036,9.848a8.838,8.838,0,0,1-6.878,8.667,8.915,8.915,0,0,1-6.814-1.155A8.915,8.915,0,0,1-68.1,22.286a8.812,8.812,0,0,1,6.153-10.149,9.33,9.33,0,0,1,3.628-.316,1.7,1.7,0,0,1,.254.052v4.665a11.922,11.922,0,0,0-1.343-.145,4.147,4.147,0,0,0-4.147,3.939,4.147,4.147,0,0,0,3.52,4.375,4.147,4.147,0,0,0,3.382-.9,4.147,4.147,0,0,0,1.485-3.17c.036-2.426,0-4.852,0-7.257V1.3a1.353,1.353,0,0,1,.031-.352Z" transform="translate(68.271 -0.93)" /></svg>
