<svg xmlns="http://www.w3.org/2000/svg" viewBox="0 0 45.8 46"><path d="m33.4 27.6-4-1.9c-.5-.2-.8-.3-1.2.3l-1.8 2.2c-.3.3-.7.5-1.2.2a15.6 15.6 0 0 1-4.6-2.9 17.2 17.2 0 0 1-3.2-3.9c-.3-.6 0-.8.3-1.2a16 16 0 0 0 1.4-2 1 1 0 0 0 0-1c-.2-.2-1.3-3-1.8-4.1-.5-1.1-1-1-1.3-1h-1a2 2 0 0 0-1.6.7 6.4 6.4 0 0 0-2 4.7c0 2.8 2 5.5 2.3 6s4 6 9.8 8.5a32.6 32.6 0 0 0 3.2 1.2 7.8 7.8 0 0 0 3.6.2c1-.1 3.4-1.3 3.8-2.7a4.8 4.8 0 0 0 .4-2.7l-1.1-.6"/><path d="M39.1 6.7A22.8 22.8 0 0 0 3.2 34.2L0 46l12-3.2a22.8 22.8 0 0 0 11 2.8A22.8 22.8 0 0 0 39 6.6M23 41.9a19 19 0 0 1-9.7-2.7l-.7-.4-7.1 1.9 1.9-7-.5-.7a19 19 0 1 1 16 8.9"/></svg>
