<svg viewBox="0 0 20 20" fill="none" xmlns="http://www.w3.org/2000/svg"><path d="M13.1675 19.4875C12.6613 19.585 12.5 19.2738 12.5 19.0075V16.2638C12.5 15.33 12.1725 14.7225 11.8125 14.4125C14.04 14.165 16.38 13.3188 16.38 9.47875C16.38 8.38625 15.99 7.49375 15.3512 6.795C15.4538 6.5425 15.7962 5.525 15.2525 4.14875C15.2525 4.14875 14.4137 3.88 12.505 5.17375C11.705 4.94875 10.85 4.84 10 4.835C9.15 4.83875 8.295 4.94875 7.49625 5.17125C5.58625 3.8775 4.74625 4.14625 4.74625 4.14625C4.20375 5.52375 4.54625 6.54 4.65 6.79375C4.01 7.49375 3.62 8.385 3.62 9.4775C3.62 13.3075 5.95375 14.1663 8.17625 14.42C7.89 14.67 7.63125 15.11 7.54125 15.7575C6.97 16.0125 5.52375 16.4538 4.63125 14.925C4.63125 14.925 4.1025 13.965 3.0975 13.8938C3.0975 13.8938 2.1225 13.8813 3.02875 14.5025C3.02875 14.5025 3.685 14.81 4.14 15.965C4.14 15.965 4.71875 17.75 7.5 17.145V19.0063C7.5 19.27 7.33875 19.58 6.84 19.4875C2.865 18.1663 0 14.4175 0 10C0 4.47625 4.4775 0 10 0C15.5225 0 20 4.47625 20 10C20 14.4163 17.1388 18.1638 13.1675 19.4875Z"/></svg>
